<svg xmlns="http://www.w3.org/2000/svg" viewBox="0 0 466.87 127.85"><defs><style>.cls-1{fill:#222220;}.cls-2{fill:#c20d19;}.cls-3{fill:#9c271a;}.cls-4{fill:#fff;}.cls-5{fill:#3f4c97;}.cls-6{fill:#289548;}.cls-7{fill:#ffed00;}</style></defs><title>Ativo 1</title><g id="Camada_2" data-name="Camada 2"><g id="_Camada_" data-name="&lt;Camada&gt;"><path class="cls-1" d="M39.23,84.71c8,0,19.92-3.71,22.25-9.25l2.39,9.84s.75,1.09-1.33,2.89a37.66,37.66,0,0,1-23.3,8.58,37.64,37.64,0,0,1-23.29-8.58c-2.08-1.8-1.33-2.89-1.33-2.89L17,75.46c2.32,5.54,14.22,9.25,22.23,9.25"/><path class="cls-2" d="M39.23,85.35c-8,0-19.88-4.17-22.19-9.55l-2.36,9.45s-.5,1,1.56,2.73a36.73,36.73,0,0,0,23,8.28,36.74,36.74,0,0,0,23-8.28c2.06-1.73,1.56-2.73,1.56-2.73L61.45,75.8c-2.32,5.38-14.21,9.55-22.21,9.55"/><path class="cls-3" d="M20.17,76.49a3,3,0,0,1-.12,3.42,42.21,42.21,0,0,1-5,4.76,2,2,0,0,0-.39,1.24c-.16-.59.69-4.38,1.17-8s-.31-9-.94-9.54Z"/><path class="cls-2" d="M3.24,66.57c2.78-1.28,2.95-3-1.7-3Z"/><path class="cls-3" d="M6.08,69.56c-.55.1-1.09.18-1.63.23C2.2,70-2.48,68.4,1.68,67.15c2.22-.67,3.56-1.65,3.53-2.41a34.74,34.74,0,0,1,.88,4.82"/><path class="cls-2" d="M20.46,77.12c-2.08-2.67-12.15,2-16.11,1.63-3-.28-2.12-1.1-2.79-5.31C1.34,72,.23,69.75,0,68.34c.16.86,2.88,1.58,4.43,1.44,4.85-.42,8.69-3.47,10.46-1.81,1.5,1.17,4.81,7.15,5.56,9.15"/><path class="cls-1" d="M15.15,86.87c-.28-.42-.7-.92.19-2s5.54-4,5.76-6.45S15.16,67.92,15,67.82c-2.14-1.53-5.69,1.08-10.55,1.5-2.06.16-6.56-.67-2.4-1.92S7,63.54,1.59,63.54c5.32,0,4.25,2.36.08,3.61S2.2,70,4.45,69.79c4.85-.42,8.62-3.28,10.4-1.79.35.29,5.68,7.59,5.68,10.32,0,2.2-4.88,5.59-5.4,6.13a1.66,1.66,0,0,0,0,2.44"/><path class="cls-1" d="M1.55,63.55a24.49,24.49,0,0,1,1.73,3.09l-.38.21s0-.91-1.35-3.3"/><path class="cls-1" d="M5.39,64.76s.92,4.31.69,4.73c0,0-.6-3.78-.83-4.48Z"/><path class="cls-1" d="M.2,68.65c.21,1.4,1.14,3.34,1.37,4.79.67,4.21-.23,5,2.79,5.31,4,.36,14-4.29,16.1-1.63,0,0,.09,1.28.07,1.14a2.79,2.79,0,0,0-.21-1C18.85,74.42,8,79.66,4,79.3c-3-.28-1.93-1.49-2.6-5.69-.21-1.3-1-3.05-1.35-4.42,0-.16-.21-1.1,0-1.22s0,.5,0,.5Z"/><path class="cls-1" d="M16,76.54c.38.93-.82,7-1.31,8.71a1.89,1.89,0,0,0-.05.71c-.27-.49.42-3.11.71-5.17s.6-3.92.38-4.14Z"/><path class="cls-3" d="M58.31,76.49a3,3,0,0,0,.12,3.42,42.21,42.21,0,0,0,5,4.76,2,2,0,0,1,.39,1.24c.16-.59-.7-4.38-1.17-8s.31-9,.94-9.54Z"/><path class="cls-2" d="M75.25,66.57c-2.78-1.28-2.95-3,1.7-3Z"/><path class="cls-3" d="M72.4,69.56c.55.1,1.1.18,1.63.23,2.25.19,6.93-1.39,2.77-2.64-2.21-.67-3.56-1.65-3.53-2.41a34.92,34.92,0,0,0-.88,4.82"/><path class="cls-2" d="M58,77.12c2.08-2.67,12.14,2,16.1,1.63,3-.28,2.12-1.1,2.79-5.31.23-1.45,1.33-3.7,1.55-5.1-.16.86-2.88,1.58-4.43,1.44-4.85-.42-8.69-3.47-10.46-1.81-1.5,1.17-4.81,7.15-5.56,9.15"/><path class="cls-1" d="M63.34,86.87c.28-.42.72-.92-.16-2s-5.57-4-5.79-6.45,5.93-10.46,6.07-10.55c2.14-1.53,5.7,1.08,10.55,1.5,2.05.16,6.41-.75,2.25-2s-4.78-3.79.63-3.79c-5.32,0-4.25,2.36-.09,3.61S76.28,70,74,69.79c-4.85-.42-8.62-3.28-10.4-1.79-.35.29-5.68,7.59-5.68,10.32,0,2.2,4.88,5.59,5.4,6.13a1.66,1.66,0,0,1,0,2.44"/><path class="cls-1" d="M76.94,63.55a24.74,24.74,0,0,0-1.74,3.09l.38.18s0-.88,1.35-3.27"/><path class="cls-1" d="M73,64.8s-.9,4.1-.6,4.69c0,0,.6-3.78.83-4.48Z"/><path class="cls-1" d="M78.29,68.65c-.22,1.4-1.14,3.34-1.37,4.79-.67,4.21.23,5-2.79,5.31-4,.36-14-4.29-16.1-1.63,0,0-.09,1.28-.07,1.14a2.8,2.8,0,0,1,.22-1c1.46-2.89,12.31,2.35,16.27,2,3-.28,1.93-1.49,2.6-5.69.21-1.3,1-3.05,1.35-4.42,0-.16.21-1.1,0-1.22s0,.5,0,.5Z"/><path class="cls-1" d="M62.5,76.54c-.38.93.82,7,1.31,8.71a1.9,1.9,0,0,1,.05.71c.27-.49-.42-3.11-.71-5.17s-.6-3.92-.38-4.14Z"/><path class="cls-4" d="M2.75,73,2.28,73l-.1-1a.55.55,0,0,0,.55-.62l.82-.1.59,6.15-1,.12Z"/><path class="cls-1" d="M3,77.74l-.44-4.57-.47.06L2,71.82l.18,0c.28,0,.4-.17.39-.43V71.2L3.72,71l.63,6.52Zm-.11-5,.44,4.57L4,77.25l-.56-5.78-.48.06a.69.69,0,0,1-.53.6l.07.68Z"/><path class="cls-4" d="M6.27,77.26q-.06-.75-.06-1.49a12.64,12.64,0,0,1,.09-1.41,8.76,8.76,0,0,1,.24-1.27A5.8,5.8,0,0,1,7,72l-2.07.36-.15-1.09L8,70.7l.16,1.17a4,4,0,0,0-.5,1,7,7,0,0,0-.32,1.27,10.77,10.77,0,0,0-.13,1.45,10.52,10.52,0,0,0,.08,1.51Z"/><path class="cls-1" d="M6.1,77.48l0-.2c0-.5-.06-1-.06-1.5a12.9,12.9,0,0,1,.09-1.43A9.47,9.47,0,0,1,6.36,73a6.3,6.3,0,0,1,.27-.8l-1.91.33-.19-1.46,3.64-.64.19,1.44,0,.06a3.86,3.86,0,0,0-.48.93,6.92,6.92,0,0,0-.32,1.24,10.55,10.55,0,0,0-.13,1.43,10.28,10.28,0,0,0,.07,1.48l0,.18Zm1.19-5.73-.17.33a5.65,5.65,0,0,0-.4,1.06,8.42,8.42,0,0,0-.24,1.24,12.91,12.91,0,0,0-.09,1.39c0,.42,0,.84,0,1.26l.64-.11A10.6,10.6,0,0,1,7,75.57a10.76,10.76,0,0,1,.13-1.47,7.48,7.48,0,0,1,.33-1.31,4.18,4.18,0,0,1,.49-1l-.12-.91L5,71.43l.1.72Z"/><path class="cls-4" d="M10.71,76.43q-.11-.75-.15-1.48a12.29,12.29,0,0,1,0-1.41,9.08,9.08,0,0,1,.17-1.29,5.92,5.92,0,0,1,.34-1.12l-2,.52-.21-1.08,3.23-.83.23,1.16a4.08,4.08,0,0,0-.44,1,7,7,0,0,0-.25,1.29,10.23,10.23,0,0,0,0,1.46,10.34,10.34,0,0,0,.16,1.5Z"/><path class="cls-1" d="M10.56,76.66l0-.21c-.07-.5-.12-1-.14-1.5a12.43,12.43,0,0,1,0-1.43,9,9,0,0,1,.17-1.32,6.57,6.57,0,0,1,.22-.81l-1.88.49-.28-1.44,3.59-.92.28,1.42,0,.06A4,4,0,0,0,12,72a6.94,6.94,0,0,0-.24,1.26,10.36,10.36,0,0,0,.12,2.9l0,.17Zm.85-5.81-.15.35a5.71,5.71,0,0,0-.33,1.08,9,9,0,0,0-.17,1.26,12.15,12.15,0,0,0,0,1.39c0,.41.06.84.11,1.26L11.5,76a10.62,10.62,0,0,1-.14-1.35,10.85,10.85,0,0,1,0-1.48,7.39,7.39,0,0,1,.25-1.33,4.39,4.39,0,0,1,.42-1L11.91,70l-2.86.73.14.71Z"/><path class="cls-4" d="M15.54,75.16a1.49,1.49,0,0,1-1.74-.4l.61-.92a.71.71,0,0,0,.85.27c.42-.15.56-.48.43-1s-.47-.79-.92-.63l-.39.14-.29-1.05.39-.14q.44-.16.26-.81c-.1-.32-.29-.45-.58-.38h0a.51.51,0,0,0-.33.54l-.88-.08a1.47,1.47,0,0,1,.92-1.5l.05,0q1.25-.45,1.68,1.07a1.49,1.49,0,0,1-.14,1.28,1.45,1.45,0,0,1,.73.4,1.92,1.92,0,0,1,.44.83,2.22,2.22,0,0,1,0,1.51,1.76,1.76,0,0,1-1.05.87"/><path class="cls-1" d="M14.9,75.47a1.64,1.64,0,0,1-1.24-.59l-.1-.11.82-1.25.16.19a.53.53,0,0,0,.65.21c.22-.08.45-.23.31-.76s-.39-.54-.47-.54a.63.63,0,0,0-.21,0l-.58.21-.39-1.41.55-.2c.08,0,.28-.1.14-.59-.08-.26-.21-.26-.26-.26h-.1c-.09,0-.2.1-.2.36V71l-1.26-.11v-.18a1.64,1.64,0,0,1,1-1.67l.06,0a1.8,1.8,0,0,1,.59-.11c.64,0,1.08.44,1.33,1.3a1.76,1.76,0,0,1,0,1.22,1.59,1.59,0,0,1,.59.38,2.09,2.09,0,0,1,.49.92,2.39,2.39,0,0,1,0,1.64,1.94,1.94,0,0,1-1.16,1,2.09,2.09,0,0,1-.7.13M14,74.74a1.29,1.29,0,0,0,1.44.25,1.58,1.58,0,0,0,.95-.77,2,2,0,0,0,0-1.38,1.71,1.71,0,0,0-.39-.75,1.24,1.24,0,0,0-.64-.35l-.26-.06.15-.23a1.31,1.31,0,0,0,.11-1.13c-.25-.9-.71-1.2-1.43-.94l-.06,0a1.21,1.21,0,0,0-.78,1.15l.52,0a.64.64,0,0,1,.43-.51l0,0,.18,0a.63.63,0,0,1,.62.54c.2.72-.15,1-.37,1l-.23.08.19.69.2-.07a1,1,0,0,1,.34-.07c.27,0,.63.14.83.82a.89.89,0,0,1-.54,1.21.87.87,0,0,1-.89-.15Z"/><path class="cls-4" d="M63.59,70.42l-.46-.14.24-1c.37.11.61,0,.71-.35l.8.25-1.43,6-.93-.29Z"/><path class="cls-1" d="M63.59,75.39,62.3,75l1.06-4.43-.46-.14L63.24,69l.19.05a.64.64,0,0,0,.19,0c.1,0,.22,0,.28-.25l.05-.18,1.15.36Zm-.84-.66.57.18,1.34-5.61-.47-.15a.63.63,0,0,1-.68.34l-.16.66.46.14Z"/><path class="cls-4" d="M66.36,75.82A1.65,1.65,0,0,1,65.26,75a2.18,2.18,0,0,1-.18-1.53,2.34,2.34,0,0,1,.38-.94,1.34,1.34,0,0,1,.6-.51,1.38,1.38,0,0,1-.18-.57,2.29,2.29,0,0,1,0-.61,1.6,1.6,0,0,1,.54-1,1.12,1.12,0,0,1,1-.18,1.4,1.4,0,0,1,.91.6,1.72,1.72,0,0,1,.13,1.24,1.94,1.94,0,0,1-.2.58,1.06,1.06,0,0,1-.41.43,1.09,1.09,0,0,1,.27.32,1.72,1.72,0,0,1,.16.43,2.18,2.18,0,0,1,.05.49,2.76,2.76,0,0,1,0,.51,2,2,0,0,1-.71,1.31,1.51,1.51,0,0,1-1.28.2M66.88,73a.61.61,0,0,0-.53.1,1,1,0,0,0-.32.62,1,1,0,0,0,.08.67.68.68,0,0,0,.45.34.64.64,0,0,0,.54-.09.88.88,0,0,0,.3-.59c.11-.59-.07-.94-.53-1.06m.42-2.27c-.3-.07-.48.08-.56.47a.63.63,0,0,0,0,.43.44.44,0,0,0,.3.22.36.36,0,0,0,.34-.08.61.61,0,0,0,.19-.37c.07-.38,0-.61-.32-.68"/><path class="cls-1" d="M66.81,76.07a2.14,2.14,0,0,1-.5-.06,1.84,1.84,0,0,1-1.21-.86,2.37,2.37,0,0,1-.2-1.65,2.53,2.53,0,0,1,.41-1,1.66,1.66,0,0,1,.51-.49,1.62,1.62,0,0,1-.11-.46,2.52,2.52,0,0,1,0-.66,1.78,1.78,0,0,1,.61-1.13,1.31,1.31,0,0,1,1.16-.22,1.58,1.58,0,0,1,1,.68,1.9,1.9,0,0,1,.16,1.37,2.27,2.27,0,0,1-.21.64,1.2,1.2,0,0,1-.3.37,1.39,1.39,0,0,1,.15.21,1.79,1.79,0,0,1,.18.48,2.3,2.3,0,0,1,.06.53,2.89,2.89,0,0,1,0,.55,2.15,2.15,0,0,1-.78,1.43,1.58,1.58,0,0,1-.93.29m.32-6.22a.86.86,0,0,0-.55.18,1.43,1.43,0,0,0-.47.9,2,2,0,0,0,0,.57,1.2,1.2,0,0,0,.15.49l.11.19-.21.07a1.16,1.16,0,0,0-.52.44,2.15,2.15,0,0,0-.35.87,2,2,0,0,0,.15,1.4,1.45,1.45,0,0,0,1,.69,1.33,1.33,0,0,0,1.13-.17,1.79,1.79,0,0,0,.63-1.19,2.64,2.64,0,0,0,0-.48,2.17,2.17,0,0,0,0-.45A1.57,1.57,0,0,0,68,73a.9.9,0,0,0-.22-.27l-.21-.17.23-.14a.89.89,0,0,0,.35-.36,1.91,1.91,0,0,0,.18-.53,1.57,1.57,0,0,0-.11-1.1,1.42,1.42,0,0,0-1.1-.55M66.75,75h0l-.23,0a.86.86,0,0,1-.57-.43,1.16,1.16,0,0,1-.1-.8,1.13,1.13,0,0,1,.39-.74.81.81,0,0,1,.68-.13c.32.08.84.35.67,1.27a1.08,1.08,0,0,1-.38.71.77.77,0,0,1-.47.15m0-1.78a.42.42,0,0,0-.25.08,1,1,0,0,0-.18,1.05.49.49,0,0,0,.33.25l.14,0a.39.39,0,0,0,.24-.08.73.73,0,0,0,.24-.47c.12-.63-.15-.78-.39-.84l-.13,0m.49-1.12h0L67,72a.63.63,0,0,1-.42-.31.8.8,0,0,1-.07-.56c.1-.56.42-.64.6-.64l.18,0c.22.06.58.24.46.89a.81.81,0,0,1-.25.47.53.53,0,0,1-.36.13m0-1.15s-.18,0-.24.33a.45.45,0,0,0,0,.31.27.27,0,0,0,.18.13h.07a.16.16,0,0,0,.11,0,.42.42,0,0,0,.12-.26c.07-.4-.09-.44-.18-.46h-.09"/><path class="cls-4" d="M72.38,75.7l-.25,1.51L71.18,77l.25-1.51L69.36,75l.2-1.15,2.56-3,1,.23-.59,3.49.56.12-.18,1.08Zm-.76-1.29.32-1.87-1.38,1.63Z"/><path class="cls-1" d="M72.28,77.43,71,77.14l.26-1.51-2.08-.46.23-1.38L72,70.69l1.32.29-.59,3.49.55.12L73.08,76l-.55-.12Zm-.88-.58L72,77l.26-1.51.55.12.12-.71-.55-.12.59-3.49-.76-.17L69.73,74l-.16.93,2.08.46Zm.38-2.22-1.56-.35,2-2.38Zm-.88-.58.58.13.17-1Z"/><path class="cls-4" d="M75.07,72.84l-.47-.08.13-1a.51.51,0,0,0,.67-.44l.82.14-.79,6.13-1-.16Z"/><path class="cls-1" d="M75.59,77.76l-1.32-.22L74.86,73l-.47-.08.18-1.4.19,0c.28,0,.41,0,.46-.29l0-.18,1.18.2Zm-.9-.53.58.1L76,71.58l-.48-.08a.65.65,0,0,1-.64.43l-.09.68.47.08Z"/><path class="cls-4" d="M19.83,89.85a4.87,4.87,0,0,1-1-.78A4.7,4.7,0,0,1,18,88l1.13-1.07a4,4,0,0,0,.54.92,2.74,2.74,0,0,0,.79.69c.7.41,1.21.31,1.53-.29a.78.78,0,0,0,0-.73q-.19-.4-.51-1c-.14-.22-.29-.46-.47-.72a4,4,0,0,1-.44-.8,2.58,2.58,0,0,1-.19-.89,2,2,0,0,1,.27-1,1.87,1.87,0,0,1,1.35-1,2.72,2.72,0,0,1,1.87.42,4.74,4.74,0,0,1,1,.73,2.92,2.92,0,0,1,.64.94l-1.07,1.12a3.06,3.06,0,0,0-.48-.83,2.93,2.93,0,0,0-.78-.63,2.11,2.11,0,0,0-.73-.28.45.45,0,0,0-.5.24.84.84,0,0,0,.06.75,9.09,9.09,0,0,0,.54,1q.28.46.51.92a5.21,5.21,0,0,1,.35.88,2.6,2.6,0,0,1,.1.83,1.82,1.82,0,0,1-.21.77,2.25,2.25,0,0,1-1.52,1.32,2.86,2.86,0,0,1-1.92-.46"/><path class="cls-1" d="M21.4,90.52A3.31,3.31,0,0,1,19.74,90a5.16,5.16,0,0,1-1.05-.81,4.84,4.84,0,0,1-.81-1.11L17.81,88l1.42-1.35.1.25a3.84,3.84,0,0,0,.52.88,2.61,2.61,0,0,0,.74.65c.59.35,1,.3,1.27-.21a.59.59,0,0,0,0-.56c-.12-.26-.29-.58-.51-.94-.13-.21-.28-.44-.46-.7a4.52,4.52,0,0,1-.46-.83,2.7,2.7,0,0,1-.21-1,2.13,2.13,0,0,1,.29-1.1A2.06,2.06,0,0,1,22,82a2.92,2.92,0,0,1,2,.45,5,5,0,0,1,1,.76,3.12,3.12,0,0,1,.68,1l0,.11-1.35,1.42-.11-.27a2.9,2.9,0,0,0-.45-.78,2.79,2.79,0,0,0-.73-.59,1.92,1.92,0,0,0-.67-.26.27.27,0,0,0-.31.14.68.68,0,0,0,.06.59,8.82,8.82,0,0,0,.53,1c.19.31.36.63.51.93a5.57,5.57,0,0,1,.36.91,2.86,2.86,0,0,1,.11.89,2,2,0,0,1-.24.85,2.42,2.42,0,0,1-1.65,1.41,2.19,2.19,0,0,1-.38,0M18.27,88a4.39,4.39,0,0,0,.68.9,4.64,4.64,0,0,0,1,.75,2.69,2.69,0,0,0,1.79.44A2.08,2.08,0,0,0,23.1,88.9a1.61,1.61,0,0,0,.19-.69,2.45,2.45,0,0,0-.1-.77,5,5,0,0,0-.34-.85c-.15-.3-.32-.6-.5-.9a8.6,8.6,0,0,1-.55-1,1,1,0,0,1-.05-.92.63.63,0,0,1,.69-.34,2.23,2.23,0,0,1,.8.3,3.17,3.17,0,0,1,.83.67,3,3,0,0,1,.4.62l.79-.83a2.71,2.71,0,0,0-.54-.76,4.65,4.65,0,0,0-.92-.7,2.55,2.55,0,0,0-1.75-.4,1.69,1.69,0,0,0-1.22.94,1.78,1.78,0,0,0-.25.9,2.42,2.42,0,0,0,.18.82,4.17,4.17,0,0,0,.42.76c.19.27.34.51.48.72.22.38.39.7.52,1a1,1,0,0,1,0,.9c-.37.69-1,.82-1.79.36a3,3,0,0,1-.85-.74,4.13,4.13,0,0,1-.46-.72Z"/><path class="cls-4" d="M27.31,93.11a3,3,0,0,1-1.12-.69,3.13,3.13,0,0,1-.73-1.11,4.06,4.06,0,0,1-.25-1.48,5.86,5.86,0,0,1,.31-1.78,4.64,4.64,0,0,1,1.8-2.64h0a2.79,2.79,0,0,1,2.5-.31l.05,0a3.07,3.07,0,0,1,1.15.7,2.94,2.94,0,0,1,.71,1.12A4.23,4.23,0,0,1,32,88.42a6.62,6.62,0,0,1-1.07,3.36,4,4,0,0,1-1,1,2.77,2.77,0,0,1-1.2.46,2.86,2.86,0,0,1-1.3-.15Zm2.1-6.58a1.56,1.56,0,0,0-1.45.2,3.34,3.34,0,0,0-1.11,1.8,4.69,4.69,0,0,0-.23,1.19,2.47,2.47,0,0,0,.11.93,1.7,1.7,0,0,0,.4.67,1.61,1.61,0,0,0,.62.39,1.56,1.56,0,0,0,1.44-.21,3.24,3.24,0,0,0,1.12-1.78,3.62,3.62,0,0,0,.18-2.12,1.61,1.61,0,0,0-1.08-1.08"/><path class="cls-1" d="M28.33,93.49a3.15,3.15,0,0,1-1-.18l-.05,0a3.19,3.19,0,0,1-1.19-.73,3.32,3.32,0,0,1-.77-1.18A4.22,4.22,0,0,1,25,89.83,6.08,6.08,0,0,1,25.34,88a4.83,4.83,0,0,1,1.88-2.74l.44-.28,0,.06a2.94,2.94,0,0,1,2.24-.1l.05,0a3.26,3.26,0,0,1,1.22.74,3.14,3.14,0,0,1,.76,1.19,4.41,4.41,0,0,1,.25,1.53,6.2,6.2,0,0,1-.32,1.82A6.27,6.27,0,0,1,31,91.88,4.24,4.24,0,0,1,30,93a3,3,0,0,1-1.28.49l-.37,0m-1.09-7.8a4.71,4.71,0,0,0-1.55,2.42,5.75,5.75,0,0,0-.29,1.72,3.86,3.86,0,0,0,.24,1.41,2.93,2.93,0,0,0,.68,1.05,2.86,2.86,0,0,0,1.06.65l.05,0a2.68,2.68,0,0,0,1.22.14,2.59,2.59,0,0,0,1.12-.43,3.8,3.8,0,0,0,1-1,5.86,5.86,0,0,0,.74-1.55,5.75,5.75,0,0,0,.3-1.7,4.07,4.07,0,0,0-.22-1.4,2.77,2.77,0,0,0-.67-1,2.92,2.92,0,0,0-1.08-.65l-.05,0a2.62,2.62,0,0,0-2.34.29Zm1,6.31h0A1.84,1.84,0,0,1,27,91.45a1.9,1.9,0,0,1-.44-.74,2.7,2.7,0,0,1-.12-1,4.92,4.92,0,0,1,.24-1.24,3.46,3.46,0,0,1,1.18-1.9,1.74,1.74,0,0,1,1.62-.22,1.78,1.78,0,0,1,1.19,1.2,3.82,3.82,0,0,1-.18,2.23,3.43,3.43,0,0,1-1.19,1.88,1.83,1.83,0,0,1-1,.33m.59-5.37a1.39,1.39,0,0,0-.8.26,3.19,3.19,0,0,0-1,1.7,4.48,4.48,0,0,0-.23,1.14,2.32,2.32,0,0,0,.1.86,1.54,1.54,0,0,0,.36.6,1.44,1.44,0,0,0,.55.34,1.41,1.41,0,0,0,.46.08,1.46,1.46,0,0,0,.81-.26,3.09,3.09,0,0,0,1-1.68,3.49,3.49,0,0,0,.18-2,1.42,1.42,0,0,0-1-1,1.48,1.48,0,0,0-.48-.09"/><path class="cls-4" d="M36.88,86.53a2.33,2.33,0,0,1,.79.29,2,2,0,0,1,.61.55,2.17,2.17,0,0,1,.35.79,2.57,2.57,0,0,1,0,1,2.25,2.25,0,0,1-.28.8,1.78,1.78,0,0,1-.5.55,1.9,1.9,0,0,1,.67.8,2.24,2.24,0,0,1,.13,1.35,2.51,2.51,0,0,1-1,1.76,2.72,2.72,0,0,1-2.08.33L33,94.29l1.29-8.2Zm-1.41,1.25-.29,1.82,1.21.2a.61.61,0,0,0,.54-.19,1.08,1.08,0,0,0,.32-.62,1,1,0,0,0-.11-.67.65.65,0,0,0-.47-.34Zm-.52,3.27-.32,2,1.44.24a.85.85,0,0,0,.69-.16,1.06,1.06,0,0,0,.37-.72,1,1,0,0,0-.13-.78.88.88,0,0,0-.59-.36Z"/><path class="cls-1" d="M36.32,95a4.2,4.2,0,0,1-.73-.06l-2.8-.48,1.35-8.57,2.77.47a2.52,2.52,0,0,1,.86.31,2.19,2.19,0,0,1,.67.6,2.34,2.34,0,0,1,.38.85,2.83,2.83,0,0,1,0,1.07,2.42,2.42,0,0,1-.3.87,2,2,0,0,1-.36.44,2.27,2.27,0,0,1,.54.72,2.46,2.46,0,0,1,.15,1.46,2.69,2.69,0,0,1-1.05,1.88,2.52,2.52,0,0,1-1.48.42m-3.11-.85,2.44.41a2.55,2.55,0,0,0,1.94-.3,2.34,2.34,0,0,0,.9-1.64,2.09,2.09,0,0,0-.12-1.24,1.7,1.7,0,0,0-.6-.72l-.24-.15.23-.16a1.56,1.56,0,0,0,.45-.49,2.07,2.07,0,0,0,.25-.74,2.42,2.42,0,0,0,0-.92,2,2,0,0,0-.32-.72,1.87,1.87,0,0,0-.56-.5,2.16,2.16,0,0,0-.73-.27l-2.4-.41Zm3-.62h0l-.21,0-1.62-.28.38-2.38,1.65.28a1,1,0,0,1,.71.43,1.2,1.2,0,0,1,.16.92,1.23,1.23,0,0,1-.44.83,1,1,0,0,1-.63.22m-1.4-.6,1.26.21a.67.67,0,0,0,.55-.12.89.89,0,0,0,.3-.6.86.86,0,0,0-.1-.64.68.68,0,0,0-.47-.28l-1.28-.22ZM36.48,90h-.13L35,89.76l.35-2.19,1.39.24a.82.82,0,0,1,.6.44,1.18,1.18,0,0,1,.13.79,1.24,1.24,0,0,1-.37.73.83.83,0,0,1-.58.25m-1.09-.55,1,.17a.44.44,0,0,0,.39-.15.85.85,0,0,0,.26-.51.81.81,0,0,0-.08-.54.46.46,0,0,0-.34-.26l-1-.17Z"/><path class="cls-4" d="M43.39,91.4l-1.12.13.35,3.14-1.41.17-.9-8.25,3-.35a2.3,2.3,0,0,1,1.81.46,2.63,2.63,0,0,1,.87,1.81,2.84,2.84,0,0,1-.2,1.51,2.38,2.38,0,0,1-.93,1l1.87,3.15-1.53.18Zm-1.52-3.52.24,2.19,1.51-.18a1,1,0,0,0,.93-1.18q-.14-1.13-1.16-1Z"/><path class="cls-1" d="M41,95l-.95-8.63L43.23,86a2.51,2.51,0,0,1,2,.5,2.82,2.82,0,0,1,.94,1.93,3,3,0,0,1-.21,1.61,2.56,2.56,0,0,1-.85,1L47,94.34l-1.93.23-1.77-3-.82.1.35,3.14Zm-.54-8.3.87,7.88,1-.12-.35-3.14,1.43-.17,1.77,3L46.38,94,44.56,91l.15-.1a2.2,2.2,0,0,0,.86-.95,2.66,2.66,0,0,0,.18-1.41,2.48,2.48,0,0,0-.8-1.69,2.12,2.12,0,0,0-1.68-.42Zm1.44,3.53-.28-2.55,1.69-.2h.21c.46,0,1,.21,1.16,1.19a1.12,1.12,0,0,1-1.09,1.38ZM42.07,88l.2,1.82,1.32-.16a.77.77,0,0,0,.76-1c-.1-.77-.49-.86-.79-.86H43.4Z"/><path class="cls-4" d="M49.78,84.74l5.1,6.85-1.43.58L52.57,91l-2.48,1,.15,1.5-1.44.59-.72-8.63Zm.14,5.53,1.69-.69-2-2.7Z"/><path class="cls-1" d="M48.63,94.33l-.75-9,2-.8,5.33,7.16-1.78.73-.88-1.2-2.22.9.15,1.5Zm-.35-8.78L49,93.79,50,93.35l-.15-1.5,2.74-1.12.88,1.2,1.07-.44L49.72,85Zm1.48,5-.42-4.3,2.56,3.42Zm.08-3L50.08,90l1.23-.5Z"/><polygon class="cls-4" points="52.95 83.3 54.15 82.53 57.58 88.37 60.33 86.62 61.06 87.88 57.11 90.39 52.95 83.3"/><path class="cls-1" d="M57,90.65,52.7,83.25l1.52-1,3.43,5.83,2.74-1.74.93,1.58ZM53.2,83.36l4,6.77,3.64-2.32-.55-.93-2.75,1.75L54.09,82.8Z"/><path class="cls-4" d="M2.75,73,2.28,73l-.1-1a.55.55,0,0,0,.55-.62l.82-.1.59,6.15-1,.12Z"/><path class="cls-4" d="M6.27,77.26q-.06-.75-.06-1.49a12.64,12.64,0,0,1,.09-1.41,8.76,8.76,0,0,1,.24-1.27A5.8,5.8,0,0,1,7,72l-2.07.36-.15-1.09L8,70.7l.16,1.17a4,4,0,0,0-.5,1,7,7,0,0,0-.32,1.27,10.77,10.77,0,0,0-.13,1.45,10.52,10.52,0,0,0,.08,1.51Z"/><path class="cls-4" d="M10.71,76.43q-.11-.75-.15-1.48a12.29,12.29,0,0,1,0-1.41,9.08,9.08,0,0,1,.17-1.29,5.92,5.92,0,0,1,.34-1.12l-2,.52-.21-1.08,3.23-.83.23,1.16a4.08,4.08,0,0,0-.44,1,7,7,0,0,0-.25,1.29,10.23,10.23,0,0,0,0,1.46,10.34,10.34,0,0,0,.16,1.5Z"/><path class="cls-4" d="M15.54,75.16a1.49,1.49,0,0,1-1.74-.4l.61-.92a.71.71,0,0,0,.85.27c.42-.15.56-.48.43-1s-.47-.79-.92-.63l-.39.14-.29-1.05.39-.14q.44-.16.26-.81c-.1-.32-.29-.45-.58-.38h0a.51.51,0,0,0-.33.54l-.88-.08a1.47,1.47,0,0,1,.92-1.5l.05,0q1.25-.45,1.68,1.07a1.49,1.49,0,0,1-.14,1.28,1.45,1.45,0,0,1,.73.4,1.92,1.92,0,0,1,.44.83,2.22,2.22,0,0,1,0,1.51,1.76,1.76,0,0,1-1.05.87"/><path class="cls-4" d="M63.59,70.42l-.46-.14.24-1c.37.11.61,0,.71-.35l.8.25-1.43,6-.93-.29Z"/><path class="cls-4" d="M66.36,75.82A1.65,1.65,0,0,1,65.26,75a2.18,2.18,0,0,1-.18-1.53,2.34,2.34,0,0,1,.38-.94,1.34,1.34,0,0,1,.6-.51,1.38,1.38,0,0,1-.18-.57,2.29,2.29,0,0,1,0-.61,1.6,1.6,0,0,1,.54-1,1.12,1.12,0,0,1,1-.18,1.4,1.4,0,0,1,.91.6,1.72,1.72,0,0,1,.13,1.24,1.94,1.94,0,0,1-.2.58,1.06,1.06,0,0,1-.41.43,1.09,1.09,0,0,1,.27.32,1.72,1.72,0,0,1,.16.43,2.18,2.18,0,0,1,.05.49,2.76,2.76,0,0,1,0,.51,2,2,0,0,1-.71,1.31,1.51,1.51,0,0,1-1.28.2M66.88,73a.61.61,0,0,0-.53.1,1,1,0,0,0-.32.62,1,1,0,0,0,.08.67.68.68,0,0,0,.45.34.64.64,0,0,0,.54-.09.88.88,0,0,0,.3-.59c.11-.59-.07-.94-.53-1.06m.42-2.27c-.3-.07-.48.08-.56.47a.63.63,0,0,0,0,.43.44.44,0,0,0,.3.22.36.36,0,0,0,.34-.08.61.61,0,0,0,.19-.37c.07-.38,0-.61-.32-.68"/><path class="cls-4" d="M72.38,75.7l-.25,1.51L71.18,77l.25-1.51L69.36,75l.2-1.15,2.56-3,1,.23-.59,3.49.56.12-.18,1.08Zm-.76-1.29.32-1.87-1.38,1.63Z"/><path class="cls-4" d="M75.07,72.84l-.47-.08.13-1a.51.51,0,0,0,.67-.44l.82.14-.79,6.13-1-.16Z"/><path class="cls-4" d="M19.83,89.85a4.87,4.87,0,0,1-1-.78A4.7,4.7,0,0,1,18,88l1.13-1.07a4,4,0,0,0,.54.92,2.74,2.74,0,0,0,.79.69c.7.41,1.21.31,1.53-.29a.78.78,0,0,0,0-.73q-.19-.4-.51-1c-.14-.22-.29-.46-.47-.72a4,4,0,0,1-.44-.8,2.58,2.58,0,0,1-.19-.89,2,2,0,0,1,.27-1,1.87,1.87,0,0,1,1.35-1,2.72,2.72,0,0,1,1.87.42,4.74,4.74,0,0,1,1,.73,2.92,2.92,0,0,1,.64.94l-1.07,1.12a3.06,3.06,0,0,0-.48-.83,2.93,2.93,0,0,0-.78-.63,2.11,2.11,0,0,0-.73-.28.45.45,0,0,0-.5.24.84.84,0,0,0,.06.75,9.09,9.09,0,0,0,.54,1q.28.46.51.92a5.21,5.21,0,0,1,.35.88,2.6,2.6,0,0,1,.1.83,1.82,1.82,0,0,1-.21.77,2.25,2.25,0,0,1-1.52,1.32,2.86,2.86,0,0,1-1.92-.46"/><path class="cls-4" d="M27.31,93.11a3,3,0,0,1-1.12-.69,3.13,3.13,0,0,1-.73-1.11,4.06,4.06,0,0,1-.25-1.48,5.86,5.86,0,0,1,.31-1.78,4.64,4.64,0,0,1,1.8-2.64h0a2.79,2.79,0,0,1,2.5-.31l.05,0a3.07,3.07,0,0,1,1.15.7,2.94,2.94,0,0,1,.71,1.12A4.23,4.23,0,0,1,32,88.42a6.62,6.62,0,0,1-1.07,3.36,4,4,0,0,1-1,1,2.77,2.77,0,0,1-1.2.46,2.86,2.86,0,0,1-1.3-.15Zm2.1-6.58a1.56,1.56,0,0,0-1.45.2,3.34,3.34,0,0,0-1.11,1.8,4.69,4.69,0,0,0-.23,1.19,2.47,2.47,0,0,0,.11.93,1.7,1.7,0,0,0,.4.67,1.61,1.61,0,0,0,.62.39,1.56,1.56,0,0,0,1.44-.21,3.24,3.24,0,0,0,1.12-1.78,3.62,3.62,0,0,0,.18-2.12,1.61,1.61,0,0,0-1.08-1.08"/><path class="cls-4" d="M36.88,86.53a2.33,2.33,0,0,1,.79.29,2,2,0,0,1,.61.55,2.17,2.17,0,0,1,.35.79,2.57,2.57,0,0,1,0,1,2.25,2.25,0,0,1-.28.8,1.78,1.78,0,0,1-.5.55,1.9,1.9,0,0,1,.67.8,2.24,2.24,0,0,1,.13,1.35,2.51,2.51,0,0,1-1,1.76,2.72,2.72,0,0,1-2.08.33L33,94.29l1.29-8.2Zm-1.41,1.25-.29,1.82,1.21.2a.61.61,0,0,0,.54-.19,1.08,1.08,0,0,0,.32-.62,1,1,0,0,0-.11-.67.65.65,0,0,0-.47-.34Zm-.52,3.27-.32,2,1.44.24a.85.85,0,0,0,.69-.16,1.06,1.06,0,0,0,.37-.72,1,1,0,0,0-.13-.78.88.88,0,0,0-.59-.36Z"/><path class="cls-4" d="M43.39,91.4l-1.12.13.35,3.14-1.41.17-.9-8.25,3-.35a2.3,2.3,0,0,1,1.81.46,2.63,2.63,0,0,1,.87,1.81,2.84,2.84,0,0,1-.2,1.51,2.38,2.38,0,0,1-.93,1l1.87,3.15-1.53.18Zm-1.52-3.52.24,2.19,1.51-.18a1,1,0,0,0,.93-1.18q-.14-1.13-1.16-1Z"/><path class="cls-4" d="M49.78,84.74l5.1,6.85-1.43.58L52.57,91l-2.48,1,.15,1.5-1.44.59-.72-8.63Zm.14,5.53,1.69-.69-2-2.7Z"/><polygon class="cls-4" points="52.95 83.3 54.15 82.53 57.58 88.37 60.33 86.62 61.06 87.88 57.11 90.39 52.95 83.3"/><rect class="cls-1" x="19.76" y="16.6" width="39.14" height="7.16"/><path class="cls-1" d="M58.32,23.85H19.66V16.51H59Zm-38.47-.18h39v-7h-39Z"/><path class="cls-4" d="M52.84,70.24a6.08,6.08,0,0,1-5.63,0,8.74,8.74,0,0,0-8,0,5.4,5.4,0,0,1-2.81.69,5.58,5.58,0,0,1-2.86-.69,8.11,8.11,0,0,0-4-1,8,8,0,0,0-4,1,5.41,5.41,0,0,1-2.81.69A5.54,5.54,0,0,1,20,70.24a8,8,0,0,0-3.55-.95,21.38,21.38,0,0,0,1.24,2.54,7.7,7.7,0,0,1,1.15.48,8.06,8.06,0,0,0,4,1,8,8,0,0,0,4-1,5.39,5.39,0,0,1,2.81-.69,5.55,5.55,0,0,1,2.86.7,8.1,8.1,0,0,0,4,1,8,8,0,0,0,4-1,5.39,5.39,0,0,1,2.81-.69,5.44,5.44,0,0,1,2.82.69,8.72,8.72,0,0,0,8,0,5.39,5.39,0,0,1,2.81-.69,5.22,5.22,0,0,1,2.75.69"/><path class="cls-4" d="M43.27,71.17c-3.31,0-6.28,2.36-6.08,5.55a3.64,3.64,0,0,1-.52,3.09,10.34,10.34,0,0,1-2.51,2.39s1.92.23,3.38.31a7.61,7.61,0,0,0,1.81-2,3.64,3.64,0,0,0,.47-3.1c-.22-2.69,1.83-4.83,4.45-5.45A2.62,2.62,0,0,1,46,72Z"/><polygon class="cls-5" points="40.64 25.64 41.54 27.67 39.21 27.67 36.89 27.67 37.79 25.64 34.57 26.21 34.57 24.74 34.57 23.27 37.79 23.84 36.89 21.8 39.21 21.8 41.54 21.8 40.64 23.84 43.86 23.27 43.86 24.74 43.86 26.21 40.64 25.64"/><path class="cls-1" d="M41.66,27.76h-4.9l.89-2-3.17.56V23.17l3.17.56-.89-2h4.9l-.89,2,3.17-.56V26.3l-3.17-.56ZM37,27.59h4.39l-.91-2.06,3.28.58V23.37l-3.28.58.91-2.06H37l.91,2.06-3.28-.58v2.74l3.28-.58Z"/><path class="cls-6" d="M39.24,82.56c-22.93,0-24.36-18.23-24.36-18.23V59.71H63.6v4.62S62.17,82.56,39.24,82.56"/><path class="cls-1" d="M39.24,82.64a29.62,29.62,0,0,1-13.51-2.86,19.94,19.94,0,0,1-7.33-6.29,20.43,20.43,0,0,1-3.6-9.15V59.63H63.69v4.7a20.49,20.49,0,0,1-3.6,9.16,20,20,0,0,1-7.33,6.29,29.62,29.62,0,0,1-13.51,2.86M15,59.79v4.54a20.29,20.29,0,0,0,3.57,9.07c2.93,4.14,8.9,9.07,20.71,9.07S57,77.54,60,73.4a20.29,20.29,0,0,0,3.57-9.07V59.79Z"/><path class="cls-7" d="M63.45,65.42l-1,1.34-3.22-3.51-3.58,3.51L52,63.25l-4,3.51L43.7,63.25l-4.45,3.51L34.8,63.26l-4.31,3.52-4-3.51-3.61,3.52-3.58-3.5L16,66.8l-1-1.2a5.39,5.39,0,0,1-.18-1.48V59.71H63.6v4.63a5.94,5.94,0,0,1-.15,1.08"/><path class="cls-1" d="M16,66.93,15,65.63a5.3,5.3,0,0,1-.19-1.5v-4.5H63.69v4.71a6,6,0,0,1-.16,1.1v0l-1.06,1.42-3.23-3.52-3.57,3.51L52,63.36l-4,3.51L43.7,63.35l-4.45,3.51L34.8,63.36l-4.31,3.52-4-3.5L22.85,66.9l-3.58-3.5Zm-.9-1.36L16,66.68l3.22-3.51,3.58,3.5,3.61-3.52,4,3.51,4.31-3.51,4.45,3.51,4.45-3.51L48,66.65l4-3.52,3.61,3.51,3.58-3.51,3.21,3.5.92-1.25a5.63,5.63,0,0,0,.15-1V59.79H15v4.33a5.48,5.48,0,0,0,.18,1.44"/><path class="cls-1" d="M49.82,73.46a8.14,8.14,0,0,1-4.06-1,5.88,5.88,0,0,0-5.47,0,8.13,8.13,0,0,1-4.05,1,8.27,8.27,0,0,1-4.09-1,5.4,5.4,0,0,0-2.78-.68,5.27,5.27,0,0,0-2.73.67,8.13,8.13,0,0,1-4.06,1,8.23,8.23,0,0,1-4.08-1,4.7,4.7,0,0,0-.87-.32l-.15,0,0-.06A28.2,28.2,0,0,1,16,69.36l-.11-.27h.29a8.16,8.16,0,0,1,3.62,1,5.35,5.35,0,0,0,2.77.68,5.27,5.27,0,0,0,2.73-.67,8.12,8.12,0,0,1,4.06-1,8.26,8.26,0,0,1,4.09,1,5.4,5.4,0,0,0,2.78.68A5.25,5.25,0,0,0,39,70.07a8.92,8.92,0,0,1,8.12,0,5.87,5.87,0,0,0,5.46,0,8.12,8.12,0,0,1,4.05-1,7.94,7.94,0,0,1,4,1,6.22,6.22,0,0,0,1,.42l.19.06-.07.18a21,21,0,0,1-1.25,2.17l-.08.07-.1,0a10.87,10.87,0,0,1-1.06-.47,5.08,5.08,0,0,0-2.66-.67,5.25,5.25,0,0,0-2.72.67,8.1,8.1,0,0,1-4.05,1m-6.8-2a5.59,5.59,0,0,1,2.9.71,8.55,8.55,0,0,0,7.79,0,5.56,5.56,0,0,1,2.89-.71,5.37,5.37,0,0,1,2.83.71c.29.14.55.27.89.41.21-.33.77-1.32,1-1.76a7,7,0,0,1-.87-.38,7.59,7.59,0,0,0-3.84-.94,7.76,7.76,0,0,0-3.89.94,6.24,6.24,0,0,1-5.79,0,8.54,8.54,0,0,0-7.79,0,5.56,5.56,0,0,1-2.89.71,5.72,5.72,0,0,1-2.94-.71,8,8,0,0,0-3.93-.94,7.79,7.79,0,0,0-3.89.94,5.58,5.58,0,0,1-2.9.71,5.68,5.68,0,0,1-2.93-.71,7.85,7.85,0,0,0-3.17-.91c.27.57.83,1.63,1.24,2.31h0a5,5,0,0,1,.92.35,8,8,0,0,0,3.92.93,7.83,7.83,0,0,0,3.89-.94,5.56,5.56,0,0,1,2.89-.71,5.68,5.68,0,0,1,2.94.72,8,8,0,0,0,3.93.93,7.82,7.82,0,0,0,3.89-.94A5.56,5.56,0,0,1,43,71.43"/><path class="cls-4" d="M60.52,70.24a7.75,7.75,0,0,0-3.93-1,8,8,0,0,0-4,1,5.38,5.38,0,0,1-2.8.69A5.45,5.45,0,0,1,47,70.24a8.74,8.74,0,0,0-8,0,5.39,5.39,0,0,1-2.81.69,5.58,5.58,0,0,1-2.86-.69,8.11,8.11,0,0,0-4-1,8,8,0,0,0-4,1,5.41,5.41,0,0,1-2.81.69,5.53,5.53,0,0,1-2.85-.69,8,8,0,0,0-3.55-.95A29,29,0,0,0,17.6,72a5.23,5.23,0,0,1,1,.36,8.07,8.07,0,0,0,4,1,8,8,0,0,0,4-1,5.4,5.4,0,0,1,2.81-.69,5.57,5.57,0,0,1,2.86.7,8.09,8.09,0,0,0,4,1A8.54,8.54,0,0,0,38.4,73,4.77,4.77,0,0,0,37,76.72a3.64,3.64,0,0,1-.52,3.09,9.33,9.33,0,0,1-2.38,2.29s1.87.24,3.33.32a7,7,0,0,0,1.72-1.93,3.62,3.62,0,0,0,.47-3.1c-.21-2.69,1.83-4.83,4.45-5.45a2.09,2.09,0,0,1,.71-.09,7.71,7.71,0,0,1,1.07.46,8.72,8.72,0,0,0,8,0,5.39,5.39,0,0,1,2.81-.69,5.22,5.22,0,0,1,2.75.69,10.39,10.39,0,0,0,1,.46,23,23,0,0,0,1.19-2.1,6.33,6.33,0,0,1-1-.44"/><path class="cls-1" d="M37.47,82.61H37.4c-1.45-.08-3.32-.32-3.34-.32l-.5-.06.42-.28a9.24,9.24,0,0,0,2.32-2.23,3.42,3.42,0,0,0,.52-2.84l0-.14A5,5,0,0,1,38.17,73,6.71,6.71,0,0,1,43,71h.08l2.71.87-.1.36A5.06,5.06,0,0,0,44.64,72a1.94,1.94,0,0,0-.48.07l-.06,0c-2.73.65-4.5,2.8-4.31,5.24l0,.1a3.77,3.77,0,0,1-.51,3.12,7.08,7.08,0,0,1-1.77,2Z"/><path class="cls-1" d="M34.58,82c.63.07,1.79.2,2.77.26A6.64,6.64,0,0,0,39,80.41a3.4,3.4,0,0,0,.48-2.85l0-.14c-.21-2.63,1.68-5,4.6-5.65l.06,0,.09,0L43,71.36a6.34,6.34,0,0,0-4.57,1.89,4.55,4.55,0,0,0-1.28,3.45l0,.1a3.78,3.78,0,0,1-.56,3.11,8.68,8.68,0,0,1-2,2.07"/><path class="cls-4" d="M52.62,70.24a5.38,5.38,0,0,1-2.81.69A5.46,5.46,0,0,1,47,70.24a8.74,8.74,0,0,0-8,0,5.4,5.4,0,0,1-2.81.69,5.57,5.57,0,0,1-2.86-.69,8.11,8.11,0,0,0-4-1,8,8,0,0,0-4,1,5.41,5.41,0,0,1-2.81.69,5.53,5.53,0,0,1-2.85-.69,7.65,7.65,0,0,0-3.48-.95,21,21,0,0,0,1.21,2.54,7,7,0,0,1,1.11.49,8.07,8.07,0,0,0,4,1,8,8,0,0,0,4-1,5.39,5.39,0,0,1,2.81-.69,5.56,5.56,0,0,1,2.86.7,8.09,8.09,0,0,0,4,1,8,8,0,0,0,4-1A5.38,5.38,0,0,1,43,71.62a5.45,5.45,0,0,1,2.82.69,8.72,8.72,0,0,0,8,0,5.39,5.39,0,0,1,2.81-.69,5.22,5.22,0,0,1,2.75.69,10.51,10.51,0,0,0,1,.49,22.87,22.87,0,0,0,1.21-2.1,6.71,6.71,0,0,1-1.07-.46,7.75,7.75,0,0,0-3.93-1,8,8,0,0,0-4,1"/><path class="cls-4" d="M43.05,71.17c-3.31,0-6.28,2.36-6.08,5.55a3.64,3.64,0,0,1-.52,3.09A9.82,9.82,0,0,1,34,82.14s1.92.23,3.38.31a7.14,7.14,0,0,0,1.77-1.95,3.63,3.63,0,0,0,.47-3.1c-.21-2.69,1.83-4.83,4.45-5.45a2.62,2.62,0,0,1,1.68.09Z"/><rect class="cls-1" x="14.88" y="23.19" width="48.73" height="18.91"/><rect class="cls-1" x="14.88" y="41.77" width="48.73" height="18.93"/><polyline class="cls-5" points="40.85 23.19 63.6 23.19 63.6 42.1 14.88 42.1 14.88 23.19 37.42 23.19"/><polygon class="cls-1" points="63.69 42.18 14.8 42.18 14.8 23.1 37.55 23.1 37.63 23.27 14.96 23.27 14.96 42.02 63.52 42.02 63.52 23.27 40.8 23.27 40.88 23.1 63.69 23.1 63.69 42.18"/><rect class="cls-2" x="14.88" y="41.77" width="48.73" height="18.93"/><path class="cls-1" d="M63.69,60.79H14.8V41.69H63.69ZM15,60.62H63.52V41.86H15Z"/><path class="cls-7" d="M29.39.89l-1.81.38L28,3.08l-1.09.24q1.4-.28,2.82-.5Z"/><path class="cls-1" d="M26.92,3.42l0-.18,1-.22-.41-1.82,2-.42.36,2.13-.09,0c-.95.15-1.89.31-2.82.5m.77-2.08L28.07,3l1.54-.26L29.32,1Z"/><path class="cls-7" d="M25.45,1.72l-2.14.54.39,1.8c.74-.2,1.48-.37,2.24-.54Z"/><path class="cls-1" d="M23.63,4.18l-.43-2,2.31-.58.54,2-.1,0c-.77.17-1.52.35-2.23.54Zm-.21-1.85L23.77,4c.65-.17,1.34-.33,2-.49l-.44-1.62Z"/><path class="cls-7" d="M22.24,4.47l-.66-1.82-2.22.62L20,5.18q1.16-.39,2.34-.73Z"/><path class="cls-1" d="M19.89,5.3l-.65-2.1,2.39-.67.69,1.9h0l0,.1c-.8.23-1.58.47-2.34.73Zm-.41-2L20,5.06c.68-.23,1.39-.45,2.11-.65l-.6-1.65Z"/><path class="cls-7" d="M44,.47,42,.35l-.09,1.83q1.08,0,2.15.13Z"/><path class="cls-1" d="M44.12,2.42H44c-.69-.05-1.41-.1-2.15-.13h-.09l.1-2,2.24.13ZM42,2.09c.67,0,1.32.07,2,.12V.56L42.06.45Z"/><path class="cls-7" d="M36,.25,33.75.38l.19,1.95c.7-.06,1.41-.11,2.13-.14Z"/><path class="cls-1" d="M33.86,2.43,33.65.29,36.06.16l.11,2.12h-.09c-.67,0-1.37.08-2.12.14Zm0-2L34,2.23c.68-.06,1.32-.1,1.94-.13L35.88.35Z"/><path class="cls-7" d="M58.16,3.09l-2.22-.69-.62,1.89L53.7,3.87l.51-2-2.06-.36-.63,1.85L49.77,3l.18-2L47.81.78l-.35,1.91A60.57,60.57,0,0,1,57.57,4.95Z"/><path class="cls-1" d="M57.63,5.07l-.09,0a60.83,60.83,0,0,0-10.1-2.26l-.1,0L47.73.67,50,1l-.18,2,1.6.31L52.1,1.4l2.24.4-.53,2,1.44.37.63-1.89,2.4.75Zm-2.21-.85q1.05.29,2.09.62L58,3.15l-2-.64-.57,1.71Zm-3.77-.9c.66.14,1.32.28,2,.44l.47-1.81-1.88-.33Zm-4.09-.7q1.06.15,2.11.33l.16-1.8-2-.26Z"/><path class="cls-7" d="M66.71,6.6l-1.64-.76-.8,1.67-1.71-.73L63.34,5,61.7,4.3,61,6.15q2.51,1,4.89,2.14Z"/><path class="cls-1" d="M65.93,8.41l-.09,0C64.27,7.59,62.63,6.87,61,6.24l-.09,0,.76-2,1.82.76L62.7,6.73l1.51.65L65,5.71l1.82.85Zm-1.54-.94,1.45.69.74-1.52L65.11,6ZM61.12,6.09l1.4.56L63.22,5l-1.47-.61Z"/><path class="cls-7" d="M16.08,4.45l-1.65.8L15,7l-1.42.64-.85-1.64-1.45.7.82,1.73q2.29-1.18,4.72-2.15Z"/><path class="cls-1" d="M12.08,8.6l-.89-1.9,1.61-.78.88,1.68L14.92,7l-.6-1.85,1.81-.88L17,6.38l-.09,0c-1.61.65-3.2,1.37-4.72,2.15Zm-.65-1.81.73,1.56,1.34-.66-.79-1.51Zm3.12-1.51L15.1,7l1.63-.68L16,4.57Z"/><path class="cls-1" d="M25.87,3.65l-.06-.19.1,0,1-.21,0,.18Z"/><path class="cls-1" d="M22.31,4.55l0-.18L23.68,4l.09,0,.06.28Z"/><path class="cls-1" d="M36.07,4,36,2.1h.09c1,0,2-.07,3-.07h1c.54,0,1.11,0,1.8.06H42L41.88,4h-.09c-.65,0-1.19,0-1.71-.05h-1c-1,0-2,0-2.94.07Zm.1-1.74.08,1.55c.95,0,1.91-.07,2.85-.07h1l1.62.05.08-1.54-1.7-.05h-1c-1,0-1.93,0-2.9.07"/><path class="cls-7" d="M30,4.54l-.3-1.72q-1.42.22-2.82.5l-1,.21h0q-1.13.25-2.24.54l0,.09-1.43.29q-1.18.34-2.34.73l.52,1.69A56.53,56.53,0,0,1,30,4.54m-4.66.88L25,3.77Z"/><path class="cls-1" d="M20.42,7l-.58-1.87.09,0c.76-.25,1.54-.5,2.34-.73l1.34-.27,0-.09.09,0c.71-.18,1.47-.37,2.24-.54l.09,0h0l.88-.2c.93-.19,1.88-.36,2.83-.5h.09l.33,1.9H30A56.8,56.8,0,0,0,20.51,7Zm-.34-1.75.47,1.51c1.54-.52,3.12-1,4.72-1.36l-.38-1.52-1.07.27-1.5.41c-.76.22-1.52.45-2.24.7m5-1.42.38,1.52q2.21-.53,4.47-.88l-.26-1.53c-.92.14-1.84.31-2.73.49l-1.05.22-.81.19"/><path class="cls-7" d="M36.15,3.92l-.09-1.73c-.71,0-1.42.08-2.13.14l.17,1.73q1-.09,2-.14"/><path class="cls-1" d="M34,4.16l-.19-1.91h.1c.76-.06,1.45-.11,2.13-.14h.09L36.25,4h-.09c-.64,0-1.31.08-2,.14Zm0-1.74L34.19,4c.66-.06,1.28-.1,1.86-.13L36,2.28c-.62,0-1.25.07-1.94.13"/><path class="cls-7" d="M57,6.61l.53-1.66A60.91,60.91,0,0,0,47.46,2.69l-.31,1.7A58.65,58.65,0,0,1,57,6.61m-4.8-1.4.41-1.55Z"/><path class="cls-1" d="M57.1,6.73,57,6.7a58.37,58.37,0,0,0-9.88-2.22H47l.34-1.89h.09A61,61,0,0,1,57.6,4.86l.09,0ZM47.26,4.31A58.81,58.81,0,0,1,57,6.5L57.45,5c-1.55-.49-3.12-.91-4.72-1.27l-.4,1.5-.18,0,.39-1.49c-1.65-.37-3.33-.67-5-.9Z"/><path class="cls-7" d="M44,4V2.31c-.71-.06-1.43-.1-2.15-.13l-.09,1.73c.75,0,1.49.08,2.24.14"/><path class="cls-1" d="M44.12,4.15H44c-.71-.06-1.44-.1-2.23-.14h-.09l.1-1.91h.09c.74,0,1.46.08,2.15.13h.08Zm-2.23-.33c.72,0,1.39.07,2,.13V2.4c-.64-.05-1.3-.09-2-.12Z"/><path class="cls-7" d="M17.52,8l-.68-1.65q-2.43,1-4.73,2.15l.77,1.62Q15.13,8.93,17.52,8m-3-.51L15.17,9Z"/><path class="cls-1" d="M12.85,10.23,12,8.43l.08,0c1.52-.78,3.12-1.51,4.73-2.15l.09,0L17.64,8l-.09,0c-1.58.64-3.14,1.36-4.63,2.13Zm-.6-1.71L12.93,10q1-.54,2.13-1l-.67-1.53.17-.08.67,1.53c.72-.33,1.44-.64,2.17-.94l-.6-1.47c-1.55.62-3.08,1.32-4.55,2.07"/><path class="cls-7" d="M62.69,8.74l.65-1.62-.65,1.62Q63.84,9.25,65,9.8l.18,0,.73-1.49Q63.51,7.12,61,6.15l-.62,1.64q1.17.46,2.31,1"/><path class="cls-1" d="M64.95,9.89h0c-.74-.36-1.51-.72-2.27-1.06s-1.54-.65-2.3-1l-.09,0L60.94,6l.09,0c1.67.64,3.32,1.36,4.89,2.14l.08,0-.8,1.63ZM62.81,8.69c.73.32,1.46.66,2.17,1h.11l.67-1.37c-.77-.38-1.56-.74-2.36-1.1Zm-2.31-1c.71.28,1.43.57,2.14.88l.59-1.46q-1.08-.46-2.17-.89Z"/><path class="cls-1" d="M41.81,5.29,36.13,5.2l-.07-1.37h.1c1,0,2-.07,2.94-.07h1l1.71.05h.1ZM36.3,5l5.33.09L41.69,4l-1.62,0h-1c-.94,0-1.9,0-2.84.07Z"/><path class="cls-7" d="M20,8.62l.08.19q1.09-.39,2.2-.75l0-.14,0,.14,1.09-.33L22.9,6.12l.49,1.61q2.34-.68,4.77-1.16L27.83,5l.33,1.6L29,6.41l0,0,0,0q1.1-.2,2.21-.36V6l-1-.35L30,4.54a56.51,56.51,0,0,0-9.54,2.33l.37,1.19Z"/><path class="cls-1" d="M20,8.93l-.13-.34L20.73,8l-.37-1.21.09,0A57.07,57.07,0,0,1,30,4.45h.09l.2,1.16,1,.34,0,.19h-.1c-.71.1-1.44.22-2.2.36h0l-.82.15h0c-1.6.32-3.21.71-4.76,1.16h0l-1.08.33h0c-.74.23-1.48.48-2.19.74Zm.09-.27v0c.68-.24,1.37-.48,2.07-.7l.18-.06.87-.27-.44-1.44q-1.13.33-2.24.7L21,8.1ZM23,6.18l.44,1.44c1.5-.44,3-.81,4.6-1.12L27.75,5c-1.6.32-3.18.7-4.74,1.14M27.93,5l.3,1.46L29,6.32v0c.67-.12,1.29-.22,1.92-.31l-.77-.27-.19-1.09q-1,.16-2,.35"/><path class="cls-7" d="M18.52,9.41l-.06-.15H18L17.52,8q-2.38,1-4.63,2.13l.74,1.57a51.92,51.92,0,0,1,4.9-2.26"/><path class="cls-1" d="M13.58,11.8l-.82-1.74.08,0c1.49-.78,3.06-1.5,4.64-2.14l.08,0,.54,1.31h.41l.12.3-.09,0a52.42,52.42,0,0,0-4.89,2.26ZM13,10.14l.66,1.4c1.52-.8,3.11-1.53,4.73-2.18H18l-.51-1.25c-1.52.62-3,1.31-4.46,2.05"/><path class="cls-7" d="M46.33,5.85l0,.11q1.21.15,2.4.35h0l.86.15.29-1.54-.29,1.54q2.23.41,4.39,1l.42-1.55L54,7.45l.19.05v0q1.69.46,3.33,1l0-.1-.82-.67L57,6.61a58.55,58.55,0,0,0-9.89-2.22L46.9,5.78Z"/><path class="cls-1" d="M57.53,8.64l-.09,0c-1-.35-2.1-.68-3.19-1l-.32-.09c-1.42-.38-2.89-.71-4.38-1h0l-.82-.15h0c-.79-.14-1.58-.25-2.35-.35l-.1,0,.06-.27.57-.07.25-1.41h.09a58.88,58.88,0,0,1,9.91,2.22l.09,0-.37,1.17.82.67ZM54.17,7.41c1.06.29,2.1.6,3.1.94l-.7-.57.35-1.11Q55.71,6.29,54.46,6l-.39,1.43Zm-4.49-1c1.44.27,2.85.59,4.22.95l.39-1.43a59.37,59.37,0,0,0-7.06-1.41L47,5.86l-.34,0c.68.09,1.38.19,2.08.31l.77.14.29-1.54.18,0Z"/><path class="cls-7" d="M33.26,5.81a57.08,57.08,0,0,1,6.82-.29c1.5,0,3,.11,4.44.24v0L44,5.65V4Q42.91,4,41.79,3.91L41.72,5.2l-5.51-.09-.06-1.19c-.69,0-1.37.08-2,.14l.13,1.35Z"/><path class="cls-1" d="M33.27,5.9l0-.18.92-.38L34,4h.1c.74-.06,1.4-.11,2-.14h.09L36.3,5l5.33.09.07-1.29h.09c.79,0,1.53.08,2.24.14h.08V5.63l.49,0v.21h-.1c-1.49-.14-3-.22-4.43-.25h-.95a57.48,57.48,0,0,0-5.86.3m.94-1.76.13,1.32-.47.19c1.74-.16,3.51-.24,5.25-.24h1c1.26,0,2.55.09,3.85.2V4.13C43.27,4.08,42.6,4,41.88,4l-.07,1.29L36.13,5.2,36.07,4c-.58,0-1.19.07-1.85.13"/><path class="cls-7" d="M62.68,8.75h0q-1.14-.5-2.31-1L60,8.87l-1-.1L58.9,9q1.11.42,2.2.87l.6-1.41L61.1,9.9q1.18.5,2.34,1l.4-1L65,9.8c-.75-.37-1.51-.72-2.28-1.06Z"/><path class="cls-1" d="M63.49,11.07l-.09,0c-.77-.37-1.56-.72-2.33-1h0c-.72-.3-1.46-.6-2.2-.87l-.09,0,.14-.41,1,.1.42-1.11.09,0c.77.3,1.55.62,2.31,1l.08,0c.74.33,1.48.67,2.2,1l.2.15L63.9,10ZM61.22,9.84c.72.31,1.44.63,2.16,1l.38-1,.87-.1c-.65-.32-1.32-.62-2-.92s-1.48-.63-2.22-.92L60,9l-1-.1L59,9c.69.26,1.37.52,2,.8l.62-1.49.17.07Z"/><path class="cls-7" d="M57,10l.46-1.46q-1.64-.55-3.33-1l.58,1.8q2.57.76,5,1.75L61,10l.06-.14Q60,9.44,58.9,9l-.49,1.47Z"/><path class="cls-1" d="M59.76,11.16l0,0c-1.64-.66-3.32-1.25-5-1.75h0l-.65-2,.17,0c1.14.31,2.26.65,3.33,1l.09,0-.46,1.46,1.22.45.49-1.46.09,0c.74.28,1.49.57,2.21.87l.09,0-.11.25Zm-1.24-.69,1.21.47L61,10l0,0c-.66-.28-1.34-.55-2-.8ZM54.8,9.23c.71.21,1.43.44,2.13.68l.42-1.33c-1-.34-2-.65-3.07-.94Z"/><path class="cls-7" d="M54.73,9.3l-.58-1.8L54,7.45l-.4,1.48L54,7.45q-2.16-.58-4.39-1L49.28,8l.28-1.49-.86-.15L47.65,7.72A54.86,54.86,0,0,1,54.73,9.3"/><path class="cls-1" d="M54.87,9.44l-.17,0a54.69,54.69,0,0,0-7.07-1.58l-.15,0,1.18-1.58h.06l.78.14h.18c1.44.27,2.85.58,4.22.95h0l.18,0h0l.15,0ZM53.66,8.9l.93.26-.51-1.58h0Zm-4.28-1c1.38.26,2.75.57,4.1.93l.36-1.34c-1.36-.36-2.77-.68-4.2-.95Zm-1.56-.27,1.38.24.26-1.36-.72-.12Z"/><path class="cls-7" d="M59.74,11.05l.14.06v0q1.52.62,3,1.33l.58-1.49q-1.15-.55-2.34-1L61,10ZM62,10.39l-.58,1.39Z"/><path class="cls-1" d="M62.91,12.56l-.09,0c-1-.46-1.92-.89-2.89-1.29l-.08,0h0l-.14-.06-.15-.06L61,10l.09-.21.08,0c.78.33,1.56.68,2.34,1.05l.08,0Zm-1.34-.83,1.24.58L63.32,11l-1.21-.56ZM59.93,11l1.47.63.54-1.3L61.15,10l0,.08Z"/><path class="cls-7" d="M33.26,7.36l-.44.08c.65-.08,1.31-.14,2-.19l.28-.51-.28.51c1.74-.14,3.5-.2,5.29-.16q1.45,0,2.89.12v0q2.38.16,4.69.52L48.7,6.31q-1.19-.2-2.4-.35L46,7.49l-1.47-.16V5.76c-1.46-.14-2.94-.22-4.44-.25a57.33,57.33,0,0,0-6.82.29l-.17.07Z"/><path class="cls-1" d="M47.69,7.83h-.06c-1.53-.24-3.1-.41-4.68-.52h0c-1-.07-1.95-.11-2.88-.12h-.91c-1.45,0-2.92.06-4.37.17h0c-.68.05-1.34.12-2,.19l0-.18.36-.06L33,5.82l.26-.1a58.4,58.4,0,0,1,5.88-.3h1c1.45,0,2.95.11,4.45.25h.08V7.25l1.28.12.33-1.51h.09c.79.1,1.6.22,2.41.35l.15,0Zm-1.62-.41,1.54.21.93-1.25c-.73-.12-1.45-.23-2.16-.32ZM33.19,5.94l.15,1.35,1.39-.12L35,6.69l.17.09-.2.36C36.35,7,37.77,7,39.17,7h.91C41,7,42,7,43,7.11v0l1.45.12V5.85c-1.46-.14-2.93-.22-4.35-.24h-.95a58,58,0,0,0-5.85.3Z"/><path class="cls-7" d="M30.1,7.82,29,6.41l-.84.16.32,1.55,1.63-.3"/><path class="cls-1" d="M28.4,8.23,28,6.5l.09,0L29,6.32H29l1.23,1.58-.15,0-1.62.3Zm-.13-1.59L28.55,8l1.38-.26L29,6.51l-.69.13"/><path class="cls-7" d="M14.76,11.74l.43,1c.83-.42,1.68-.82,2.54-1.2l-1.41-1.12,1.41,1.12Q19.8,10.58,22,9.85l.33-1.79q-1.12.35-2.2.75l.58,1.47-1.56.55-.59-1.42a52,52,0,0,0-4.9,2.26l.07.14Z"/><path class="cls-1" d="M15.15,12.82l-.45-1-1.07.06-.13-.27.08,0a52.29,52.29,0,0,1,4.91-2.26l.08,0,.59,1.42,1.39-.49L20,8.75l.09,0c.72-.26,1.46-.51,2.21-.75l.15,0-.36,2H22c-1.44.49-2.86,1-4.23,1.64h0c-.84.37-1.69.77-2.53,1.2Zm-.33-1.18.42.92c.77-.39,1.54-.76,2.31-1.1l-1.26-1c-.86.39-1.71.81-2.54,1.24Zm1.67-1.26,1.26,1L19,10.84l-.55-1.31q-1,.41-2,.85m3.73-1.51.52,1.31,1.15-.4.29-1.58c-.66.21-1.32.44-2,.67"/><path class="cls-7" d="M28.47,8.12l-.32-1.55Q25.72,7,23.39,7.73l.41,1.36-.41-1.36-1.09.33L22,9.85a52.62,52.62,0,0,1,6.5-1.73m-2.37.36-.41-1.32Z"/><path class="cls-1" d="M21.85,10l.36-2,.05,0,1-.31.09,0h0l.08,0c1.53-.44,3.11-.83,4.69-1.14l.09,0,.35,1.73-.09,0A53.24,53.24,0,0,0,22,9.94Zm.53-1.85-.29,1.57A52.71,52.71,0,0,1,28.36,8l-.28-1.37c-.76.15-1.53.32-2.28.5l.43,1.39-.18.06-.43-1.4c-.71.17-1.42.36-2.11.57l.43,1.41-.18.05-.43-1.41-.95.29"/><path class="cls-7" d="M31.52,7.6l-.31-1.55q-1.11.16-2.21.36l1.1,1.41,1.42-.22"/><path class="cls-1" d="M30.06,7.92,28.83,6.35l.15,0c.77-.14,1.5-.26,2.21-.36h.09l.34,1.73h-.1l-1.42.22Zm-.89-1.45,1,1.25,1.27-.2-.27-1.36c-.64.09-1.28.19-2,.31"/><path class="cls-1" d="M31.46,7.77l0-.25h.1l1.3-.17,0,.18Z"/><path class="cls-7" d="M62,14.54l.82-2.1q-1.46-.71-3-1.33L59,13l.9-1.94-.14-.05-2,1.6q2.24.85,4.35,1.89"/><path class="cls-1" d="M62.09,14.67l-.09,0c-1.39-.69-2.85-1.32-4.34-1.89l-.15-.06,2.22-1.74.1,0,.08,0c1,.4,2,.85,3,1.33l.08,0Zm-4.21-2c1.41.54,2.79,1.14,4.11,1.79l.75-1.93c-.93-.45-1.87-.87-2.81-1.25L59,13.17l-.17-.08.89-1.93Z"/><path class="cls-7" d="M31.66,9.83l-1.57-2-1.62.3v0A52.27,52.27,0,0,0,22,9.85l-.47,2.56A49.69,49.69,0,0,1,31.66,9.83M30,10l-.49-2Zm-7.32-.28.74,2Z"/><path class="cls-1" d="M21.38,12.56l.51-2.78.05,0A52.71,52.71,0,0,1,28.36,8l.09,0h0l.09,0,1.54-.28h.06l1.7,2.18-.16,0A49.92,49.92,0,0,0,21.54,12.5Zm.67-2.64-.43,2.35q.86-.32,1.73-.6l-.76-2,.18-.07.76,2A49.91,49.91,0,0,1,30,10l-.51-2,.18,0L30.14,10l1.36-.22L30.06,7.92l-1.57.29a52.24,52.24,0,0,0-6.44,1.71"/><path class="cls-7" d="M19.75,13.1l-2-1.61q-1.29.57-2.54,1.2l.95,2.09c1.17-.61,2.38-1.17,3.61-1.68"/><path class="cls-1" d="M16.09,14.91l-1-2.26.08,0c.84-.43,1.69-.83,2.54-1.2l.05,0,2.19,1.75-.14.06c-1.25.52-2.46,1.08-3.61,1.68Zm-.78-2.18.87,1.92c1.08-.56,2.22-1.09,3.39-1.58l-1.86-1.48c-.8.35-1.61.74-2.4,1.14"/><path class="cls-7" d="M21.5,12.41,22,9.85q-2.17.73-4.24,1.64l2,1.61q.86-.36,1.75-.69"/><path class="cls-1" d="M19.74,13.21l-2.19-1.74.14-.06c1.38-.61,2.81-1.16,4.25-1.64l.15-.05-.51,2.77,0,0c-.59.22-1.18.45-1.75.69Zm-1.83-1.7L19.77,13c.54-.22,1.09-.44,1.65-.65L21.85,10c-1.34.45-2.66,1-3.94,1.52"/><path class="cls-7" d="M46.15,9.74l1.5-2Q45.34,7.37,43,7.21l1.24,2.32c.65.06,1.3.13,1.95.22"/><path class="cls-1" d="M46.19,9.84h-.05c-.62-.08-1.27-.16-1.94-.22h0L42.8,7.1H43c1.58.11,3.16.28,4.7.52l.15,0Zm-1.93-.41c.64.06,1.26.13,1.85.21l1.38-1.85c-1.43-.21-2.89-.38-4.36-.48Z"/><path class="cls-7" d="M33.51,9.6l1.27-2.35q-1,.08-2,.19l-1.29.22V7.6l-1.42.22,1.56,2q.92-.13,1.85-.23"/><path class="cls-1" d="M31.62,9.93,29.93,7.75l.15,0,1.42-.22h.09v.06l1.2-.21c.63-.07,1.3-.14,2-.19h.17L33.57,9.68h0c-.63.07-1.25.15-1.84.23Zm-1.36-2L31.7,9.73l1.75-.22,1.17-2.15c-.62.05-1.22.11-1.79.18l-1.38.18-1.17.18"/><path class="cls-7" d="M40.08,9.29c1.39,0,2.77.1,4.13.23L43,7.21q-1.43-.1-2.88-.12-2.69,0-5.3.16L33.51,9.6a52.66,52.66,0,0,1,6.57-.3"/><path class="cls-1" d="M33.35,9.71l1.38-2.55h0C36.24,7,37.72,7,39.17,7h.91C41,7,42,7,43,7.11H43l1.35,2.52-.17,0c-1.39-.13-2.78-.21-4.12-.23h-.86a52.79,52.79,0,0,0-5.69.31Zm1.5-2.37L33.68,9.48a52.73,52.73,0,0,1,5.53-.29h.87c1.29,0,2.63.09,4,.21L42.91,7.3c-1-.07-1.91-.11-2.83-.12h-.91c-1.43,0-2.89.06-4.33.17"/><path class="cls-7" d="M57.69,12.65l2-1.6q-2.44-1-5-1.75l.84,2.6q1.08.35,2.13.75"/><path class="cls-1" d="M57.71,12.76l0,0c-.7-.27-1.41-.52-2.12-.75h0l-.91-2.81.17,0c1.69.5,3.38,1.09,5,1.75l.15.06Zm-2.07-.93c.68.23,1.37.47,2,.72l1.88-1.47c-1.53-.62-3.11-1.16-4.69-1.64Z"/><path class="cls-7" d="M46.15,9.74a51.4,51.4,0,0,1,9.41,2.15l-.84-2.6a55,55,0,0,0-7.08-1.58Zm1.65.16.41-2Z"/><path class="cls-1" d="M55.71,12,55.54,12a51.71,51.71,0,0,0-9.4-2.15l-.16,0,1.63-2.2h.06a55.12,55.12,0,0,1,7.09,1.58l0,0ZM47.9,9.91a51.63,51.63,0,0,1,7.53,1.84l-.77-2.37A54.52,54.52,0,0,0,48.3,7.92Zm-1.58-.24,1.39.21.4-2-.42-.07Z"/><path class="cls-7" d="M21.18,14.24h0L19.75,13.1q-1.86.77-3.61,1.68l.67,1.47a45.43,45.43,0,0,1,4.37-2"/><path class="cls-1" d="M16.76,16.38,16,14.74l.08,0c1.15-.6,2.37-1.16,3.62-1.68l.05,0,1.48,1.18,0,.11-.08,0a45.27,45.27,0,0,0-4.36,2Zm-.5-1.56.59,1.3c1.34-.7,2.73-1.34,4.15-1.91l-1.26-1c-1.2.5-2.37,1-3.48,1.61"/><path class="cls-7" d="M21.18,14.24q1.1-.44,2.23-.83l0-.05,0,.05a48.33,48.33,0,0,1,9.29-2.15l0-.13-1-1.3A50,50,0,0,0,21.5,12.41l-.33,1.82Z"/><path class="cls-1" d="M21.12,14.36l0-.13.35-1.9.05,0A50,50,0,0,1,31.65,9.74h.05l1.07,1.37,0,.25h-.1a48.35,48.35,0,0,0-9.27,2.15c-.75.26-1.5.53-2.23.83Zm.46-1.88-.3,1.61c.69-.27,1.39-.53,2.09-.77v0a48.53,48.53,0,0,1,9.21-2.15h0l-1-1.24a49.9,49.9,0,0,0-10,2.55"/><path class="cls-7" d="M21.5,12.41q-.88.33-1.75.69l1.42,1.13Z"/><path class="cls-1" d="M21.24,14.4l-1.66-1.33.15-.06c.57-.24,1.16-.47,1.75-.69l.15-.06Zm-1.3-1.28,1.17.94.28-1.5-1.45.57"/><path class="cls-7" d="M32.7,11.26q1.2-.16,2.41-.26v0q2.45-.2,5-.16t5,.33h0l-.89-1.65q-2-.2-4.13-.23a52.84,52.84,0,0,0-6.57.3l-.83,1.54Z"/><path class="cls-1" d="M32.63,11.37l0-.25.87-1.61h0a52.88,52.88,0,0,1,5.71-.31h.87c1.35,0,2.74.1,4.14.23h.05l.92,1.72v.12h-.09c-1.67-.19-3.35-.3-5-.33h-.82c-1.36,0-2.75.06-4.13.17h0c-.8.07-1.61.15-2.4.25Zm.15-.22h0c.74-.1,1.49-.17,2.24-.24h.19c1.35-.11,2.71-.16,4-.16h.83c1.6,0,3.23.13,4.85.31l-.78-1.45c-1.37-.13-2.74-.2-4.07-.23h-.86a53.47,53.47,0,0,0-5.64.3Z"/><path class="cls-7" d="M33.51,9.6q-.93.1-1.85.23l1,1.3Z"/><path class="cls-1" d="M32.69,11.3l-1.2-1.54.16,0c.6-.09,1.22-.17,1.85-.23l.18,0Zm-.86-1.4L32.67,11l.68-1.25-1.51.19"/><path class="cls-7" d="M58.06,14.48l0-.05,0,.05q1.74.71,3.4,1.54L62,14.54q-2.11-1-4.35-1.89l-1.45,1.13c.61.22,1.22.45,1.82.7"/><path class="cls-1" d="M61.51,16.15l-.09,0c-1.1-.55-2.24-1.07-3.39-1.54h0c-.61-.25-1.22-.48-1.81-.7l-.16-.06,1.63-1.27,0,0c1.49.57,3,1.2,4.35,1.89l.08,0ZM58.1,14.4c1.13.46,2.24,1,3.31,1.5l.51-1.31c-1.35-.66-2.77-1.28-4.21-1.83l-1.28,1c.54.2,1.1.41,1.67.64l0,0Z"/><path class="cls-7" d="M56.24,13.78l1.45-1.13q-1-.4-2.12-.75l.6,1.86.07,0"/><path class="cls-1" d="M56.26,13.89l-.17-.06-.67-2.08.18.06c.71.24,1.43.49,2.13.76l.15.06ZM55.71,12l.52,1.63,1.27-1c-.59-.22-1.19-.44-1.79-.64"/><path class="cls-7" d="M45.09,11.17l1.06-1.43c-.65-.08-1.29-.16-1.95-.22Z"/><path class="cls-1" d="M45.08,11.35,44,9.42l.17,0c.68.06,1.33.14,1.95.22l.16,0Zm-.71-1.71L45.1,11,46,9.82c-.51-.07-1.06-.13-1.61-.18"/><path class="cls-7" d="M45.09,11.18c.82.1,1.64.21,2.45.35v0a49.4,49.4,0,0,1,8.62,2.24l-.6-1.86a51.59,51.59,0,0,0-9.41-2.15l-1.06,1.43Z"/><path class="cls-1" d="M56.31,13.91l-.18-.06a49.33,49.33,0,0,0-8.59-2.23h0c-.8-.14-1.63-.25-2.45-.35H45v-.14l1.09-1.47h.06a51.79,51.79,0,0,1,9.43,2.16h0Zm-8.75-2.48A49.6,49.6,0,0,1,56,13.61L55.49,12a51.8,51.8,0,0,0-9.3-2.13l-.93,1.26c.77.09,1.55.2,2.3.33"/><path class="cls-7" d="M35.11,11l.11,1.8c1.59-.13,3.22-.19,4.86-.16s3.2.14,4.77.32l.24-1.79c-1.65-.19-3.32-.3-5-.33s-3.33,0-5,.16m7.43,0-.16,1.72Z"/><path class="cls-1" d="M44.93,13.07h-.09c-1.59-.18-3.19-.29-4.76-.32h-.78c-1.34,0-2.71.06-4.06.17h-.1l-.12-2h.09c1.38-.11,2.78-.17,4.14-.17h.83c1.66,0,3.35.14,5,.33h.09Zm-2.45-.41c.76,0,1.53.12,2.29.21l.22-1.6c-.78-.09-1.57-.16-2.36-.21Zm-7.26-1.56.09,1.62c1.33-.11,2.67-.16,4-.16h.79q1.1,0,2.21.09L42.44,11c-.79,0-1.58-.08-2.37-.09h-.82c-1.33,0-2.69.05-4,.16"/><path class="cls-7" d="M56.24,13.78l-.07,0,0,.06Z"/><polygon class="cls-1" points="56.14 13.98 56.02 13.61 56.43 13.75 56.14 13.98"/><path class="cls-7" d="M35.22,12.81,35.11,11q-1.22.1-2.41.26L33,13l-.31-1.77a48.33,48.33,0,0,0-9.29,2.16L24,15.1l-.64-1.68q-1.13.39-2.24.83L21.83,16l-.65-1.72a45.4,45.4,0,0,0-4.37,2L17.58,18a45.3,45.3,0,0,1,17.64-5.15m-4.6.59-.41-1.65Z"/><path class="cls-1" d="M17.54,18.09l-.85-1.88.08,0a46.4,46.4,0,0,1,4.29-2l.07,0h0l.09,0c.68-.27,1.37-.52,2.06-.76h0l.09,0h0l.08,0a48.41,48.41,0,0,1,9.13-2.12h.19c.77-.1,1.55-.18,2.33-.24h.1l.12,2h-.09A45,45,0,0,0,17.63,18Zm-.61-1.8.7,1.54a44.76,44.76,0,0,1,4.08-1.92l-.59-1.56c-1.43.58-2.84,1.23-4.2,1.93m4.37-2,.59,1.56c.68-.27,1.36-.53,2.06-.77l-.58-1.55c-.69.24-1.39.49-2.06.76m2.24-.82L24.12,15a45.24,45.24,0,0,1,6.4-1.67l-.39-1.58.14,0a47.84,47.84,0,0,0-6.72,1.73m6.77-1.74.4,1.58q1.09-.2,2.2-.35l-.28-1.6c-.78.1-1.55.22-2.32.37m2.51-.39.28,1.6q1-.13,2-.22L35,11.11c-.74.06-1.48.14-2.21.23"/><path class="cls-7" d="M53.65,14.83l.57-1.69-.57,1.69a45.82,45.82,0,0,1,7.14,2.92L61.46,16q-1.66-.83-3.4-1.54l-.56,1.66.56-1.66q-.9-.37-1.82-.7l-.05,0-.66,1.63.66-1.63,0-.07a49.23,49.23,0,0,0-8.62-2.24l-.32,1.66.32-1.66q-1.21-.2-2.45-.34L44.85,13a47.44,47.44,0,0,1,8.8,1.87"/><path class="cls-1" d="M60.84,17.88l-.09,0a45.83,45.83,0,0,0-7.13-2.92h0a47.48,47.48,0,0,0-8.78-1.86h-.1l.27-2h.09c.79.09,1.59.2,2.37.33h.09l.09,0a49.62,49.62,0,0,1,8.54,2.23h0l0,0c.56.2,1.14.43,1.73.66l.09,0h0l.08,0c1.13.46,2.25,1,3.33,1.51l.07,0ZM57.6,16.17q1.6.67,3.15,1.45l.6-1.55c-1-.52-2.13-1-3.23-1.46Zm-1.94-.76c.6.22,1.19.45,1.77.69l.52-1.56c-.57-.23-1.14-.45-1.68-.65Zm-1.88-.64q.86.27,1.71.58l.61-1.51c-.6-.21-1.2-.42-1.8-.61ZM45,12.88a48.12,48.12,0,0,1,8.64,1.83l.52-1.54a49.79,49.79,0,0,0-6.49-1.54l-.33,1.71-.18,0,.33-1.7c-.74-.12-1.5-.23-2.26-.32Z"/><path class="cls-7" d="M17.54,18s-.81.84-.39,1.52a3.76,3.76,0,0,0,.31.38,41.74,41.74,0,0,1,6.85-3.15v0a43.39,43.39,0,0,1,4.92-1.42h0a45.77,45.77,0,0,1,31.48,4.19A.83.83,0,0,0,61.4,19c.31-.69-.52-1.2-.52-1.2l-.09,0a45.78,45.78,0,0,0-7.14-2.92v0A47.43,47.43,0,0,0,44.85,13h0c-1.57-.18-3.16-.29-4.77-.32s-3.26,0-4.86.17v0A45.29,45.29,0,0,0,17.58,18Z"/><path class="cls-1" d="M17.39,20a3.54,3.54,0,0,1-.32-.41c-.43-.7.31-1.53.39-1.62l.05-.08h0a45.16,45.16,0,0,1,17.59-5.15h.18c1.33-.11,2.67-.16,4-.16h.79c1.58,0,3.18.13,4.78.32H45a47.71,47.71,0,0,1,8.64,1.83l.18.06a46.18,46.18,0,0,1,7.07,2.9l.09,0A1.09,1.09,0,0,1,61.49,19c-.22.49-.47.55-.64.58l-.09,0,0,0,0,0a45.18,45.18,0,0,0-20.59-5.29H39.3a45.35,45.35,0,0,0-10.05,1.12,43.86,43.86,0,0,0-4.91,1.42h0A41.62,41.62,0,0,0,17.5,20Zm.25-2,0,.06s-.75.8-.38,1.4c0,.06.17.23.24.32a42.15,42.15,0,0,1,6.81-3.12,43.62,43.62,0,0,1,4.93-1.43,45.56,45.56,0,0,1,10.1-1.12h.78a45.38,45.38,0,0,1,20.63,5.29l.09,0c.15,0,.33-.07.51-.48.26-.58-.39-1-.48-1.08l-.08,0a45.91,45.91,0,0,0-7.14-2.9,47.57,47.57,0,0,0-8.78-1.86c-1.59-.18-3.19-.29-4.76-.32h-.78c-1.34,0-2.71.06-4.06.17h0A45,45,0,0,0,17.65,18"/><path class="cls-7" d="M18.46,20l.47,1.21A41.48,41.48,0,0,1,38.68,16v0h1.4a43.28,43.28,0,0,1,15.75,3.22l0-.08,0,.08c1.27.52,2.5,1.1,3.69,1.74L60,19.64a1.19,1.19,0,0,0,.74-.09,45.77,45.77,0,0,0-31.48-4.19l.41,1.48-.41-1.48a43.4,43.4,0,0,0-4.92,1.42l.56,1.54-.56-1.54a41.69,41.69,0,0,0-6.85,3.15,1.12,1.12,0,0,0,1,.09m35.43-3.36-.49,1.55Zm-5.84-1.58-.33,1.64Zm-6.41-.77L41.56,16Zm-6,1.71-.17-1.56Z"/><path class="cls-1" d="M18.89,21.36l-.48-1.23a1.6,1.6,0,0,1-.43.06.86.86,0,0,1-.58-.19v-.15a42.09,42.09,0,0,1,6.78-3.13h0l.18-.06a43.54,43.54,0,0,1,4.75-1.38h0l.18,0a45.59,45.59,0,0,1,10-1.11h.78a45.39,45.39,0,0,1,20.67,5.31l.16.08-.16.08a1.25,1.25,0,0,1-.56.13H60l-.46,1.36-.1-.05c-1.19-.63-2.43-1.21-3.67-1.73h0a43,43,0,0,0-15.72-3.21H38.68A41.54,41.54,0,0,0,19,21.31Zm-.37-1.46L19,21.1a41.73,41.73,0,0,1,19.7-5.17h1.4l1.39,0,.08-1.59-1.47,0q-2.27,0-4.5.14l.18,1.69-.19,0-.18-1.7a44.69,44.69,0,0,0-6,.93l.46,1.66-.18,0-.47-1.67a43.33,43.33,0,0,0-4.74,1.37l.59,1.6-.18.06-.59-1.6a41.76,41.76,0,0,0-6.62,3A.76.76,0,0,0,18,20a1.35,1.35,0,0,0,.45-.08Zm37.36-.75c1.22.5,2.43,1.07,3.6,1.69l.44-1.31.08,0a1,1,0,0,0,.49,0A43.83,43.83,0,0,0,54,16.72l-.48,1.52-.18-.06.48-1.52a45.2,45.2,0,0,0-5.66-1.49l-.31,1.56a42.66,42.66,0,0,1,8.05,2.42M41.65,16a44.06,44.06,0,0,1,6,.72l.31-1.56a46,46,0,0,0-6.21-.75Z"/><path class="cls-7" d="M55.12,21.12l.71-1.89A43.28,43.28,0,0,0,40.08,16h-1.4v0a41.47,41.47,0,0,0-19.75,5.21l.76,1.93a29.71,29.71,0,0,1,3.44-1.78l-.73-1.79.73,1.79a40.46,40.46,0,0,1,10.1-3l-.31-1.69.31,1.69a34.74,34.74,0,0,1,6-.44,44.24,44.24,0,0,1,19.56,5.17l.7-2.1q-1.79-1-3.69-1.74Zm-27.7-3.34.66,1.74Zm16.93.45.33-1.89Zm5.26,1.07.57-1.88Z"/><path class="cls-1" d="M19.59,23.16l-.78-2,.07,0a41.71,41.71,0,0,1,19.7-5.22h1.49a43.21,43.21,0,0,1,15.7,3.19l.07,0h0l.08,0c1.23.51,2.44,1.08,3.62,1.71l.07,0-.76,2.29-.1-.06A44.54,44.54,0,0,0,39.25,18h-.54a34.81,34.81,0,0,0-5.46.44h0a40.56,40.56,0,0,0-10.08,3,31.42,31.42,0,0,0-3.32,1.71c-.07,0-.26,0-.26,0M19,21.27,19.74,23A30.73,30.73,0,0,1,23,21.33l-.69-1.69q-1.68.74-3.27,1.64m25.39-3a45.25,45.25,0,0,1,14.32,4.69L59.41,21c-1.14-.61-2.33-1.16-3.52-1.66l-.76,2L55,21.3l.76-2a42.49,42.49,0,0,0-5.44-1.8l-.6,2-.18-.05.6-2a42.84,42.84,0,0,0-5.33-1Zm-22,1.32.69,1.7A41.26,41.26,0,0,1,28,19.47l-.62-1.65.09,0a40.83,40.83,0,0,0-4.93,1.78m5-1.8.63,1.66a38.84,38.84,0,0,1,5-1.16l-.32-1.74.18,0,.32,1.74a35.14,35.14,0,0,1,5.28-.43V16.11a42.73,42.73,0,0,0-11.08,1.64m11.26,0h.48a39.81,39.81,0,0,1,5,.41h0l.32-1.8a44.44,44.44,0,0,0-4.5-.3h-1.3Z"/><path class="cls-7" d="M30.89,40.17V38.34a8.06,8.06,0,0,1-1.55-6.8c.78-3.32,3.82-5.26,7.47-3.1V27.28s.06-.77.78-.77H40.9c.72,0,.77.77.77.77v1.16c3.65-2.16,6.69-.22,7.47,3.1a8.07,8.07,0,0,1-1.55,6.8v1.82Z"/><path class="cls-1" d="M47.68,40.25H30.8V38.37a8.14,8.14,0,0,1-1.55-6.85c.58-2.48,2.36-4.07,4.55-4.07a5.92,5.92,0,0,1,2.92.85v-1a.87.87,0,0,1,.86-.86H40.9a.87.87,0,0,1,.86.85v1a5.91,5.91,0,0,1,2.92-.85c2.19,0,4,1.6,4.55,4.07a8.15,8.15,0,0,1-1.55,6.85ZM31,40.09H47.51V38.3a8,8,0,0,0,1.54-6.74c-.56-2.4-2.28-3.95-4.39-3.95a5.83,5.83,0,0,0-3,.9l-.12.07v-1.3s-.06-.69-.69-.69H37.58c-.63,0-.69.67-.69.7v1.3l-.12-.07a5.83,5.83,0,0,0-3-.9c-2.11,0-3.83,1.55-4.39,3.95A8,8,0,0,0,31,38.3v1.79Z"/><path class="cls-1" d="M34.32,38.29a.44.44,0,1,1-.44-.44.44.44,0,0,1,.44.44"/><path class="cls-1" d="M36.39,38.29a.44.44,0,1,1-.44-.44.44.44,0,0,1,.44.44"/><path class="cls-1" d="M38.46,38.29a.44.44,0,1,1-.44-.44.44.44,0,0,1,.44.44"/><path class="cls-1" d="M40.52,38.29a.44.44,0,1,1-.44-.44.44.44,0,0,1,.44.44"/><path class="cls-1" d="M42.59,38.29a.44.44,0,1,1-.44-.44.44.44,0,0,1,.44.44"/><path class="cls-1" d="M44.67,38.29a.44.44,0,1,1-.44-.44.44.44,0,0,1,.44.44"/><path class="cls-1" d="M33.27,39.12a.44.44,0,1,1-.44-.44.44.44,0,0,1,.44.44"/><path class="cls-1" d="M35.34,39.12a.44.44,0,1,1-.45-.44.44.44,0,0,1,.45.44"/><path class="cls-1" d="M37.41,39.12a.44.44,0,1,1-.44-.44.44.44,0,0,1,.44.44"/><path class="cls-1" d="M39.47,39.12a.44.44,0,1,1-.44-.44.44.44,0,0,1,.44.44"/><path class="cls-1" d="M39.78,35.38a.53.53,0,1,1-.53-.52.53.53,0,0,1,.53.52"/><path class="cls-1" d="M39.78,33.95a.53.53,0,1,1-.53-.52.52.52,0,0,1,.53.52"/><path class="cls-1" d="M39.78,32.51a.53.53,0,1,1-.53-.52.53.53,0,0,1,.53.52"/><path class="cls-1" d="M41.54,39.12a.44.44,0,1,1-.44-.44.44.44,0,0,1,.44.44"/><path class="cls-1" d="M43.61,39.12a.44.44,0,1,1-.44-.44.44.44,0,0,1,.44.44"/><path class="cls-1" d="M45.6,39.12a.44.44,0,1,1-.44-.44.44.44,0,0,1,.44.44"/><path class="cls-1" d="M32.09,38.11c-.68-1.13-2.75-5-.94-7.56,1.21-1.69,3.46-2.18,6.18-1.36l0,.16c-2.65-.8-4.83-.33-6,1.3-1.76,2.46.28,6.27.95,7.38Z"/><path class="cls-1" d="M33,37.78c-.09-.13-2.06-3.32-1.23-5.71a2.86,2.86,0,0,1,1.49-1.7,5.19,5.19,0,0,1,3.76,0l-.06.16a5,5,0,0,0-3.63,0A2.69,2.69,0,0,0,32,32.12c-.81,2.31,1.19,5.54,1.21,5.57Z"/><path class="cls-1" d="M37.48,37.37h-2l-.65-1-1,.44,0,0A4.6,4.6,0,0,1,33,31.67a2.37,2.37,0,0,1,2.26-1.11,2.78,2.78,0,0,1,1.8.53l0,0,0,.05c-1,2.21.37,6,.39,6.08Zm-2-.16h1.72c-.23-.66-1.29-3.95-.37-6a2.75,2.75,0,0,0-1.64-.44,2.21,2.21,0,0,0-2.11,1,4.44,4.44,0,0,0,.67,4.85l1.06-.45Z"/><path class="cls-1" d="M46.56,38.11,46.42,38c.67-1.11,2.7-4.92.94-7.38-1.16-1.62-3.35-2.1-6-1.3l0-.16c2.72-.82,5-.33,6.18,1.36,1.82,2.54-.26,6.43-.94,7.56"/><path class="cls-1" d="M45.62,37.78l-.14-.09s2-3.26,1.21-5.57a2.7,2.7,0,0,0-1.41-1.61,5,5,0,0,0-3.63,0l-.06-.16a5.19,5.19,0,0,1,3.76,0,2.85,2.85,0,0,1,1.49,1.7c.83,2.39-1.14,5.58-1.23,5.71"/><path class="cls-1" d="M43.21,37.37h-2l0-.11s1.41-3.87.39-6.08l0-.05,0,0a2.77,2.77,0,0,1,1.8-.53,2.36,2.36,0,0,1,2.26,1.11,4.6,4.6,0,0,1-.73,5.06l0,0-1-.44Zm-1.81-.16h1.72l.68-1.07,1.06.45a4.44,4.44,0,0,0,.67-4.85,2.21,2.21,0,0,0-2.11-1,2.75,2.75,0,0,0-1.64.44c.92,2.09-.14,5.38-.37,6"/><path class="cls-1" d="M39.24,37.29l-2-3.66,2-3.21,2.2,3.21ZM37.4,33.63,39.25,37l2-3.33-2-2.92Z"/><path class="cls-1" d="M39.24,29.93l-1.46-1.17V27.58h3v1.17Zm-1.3-1.25,1.3,1,1.41-1v-.93H37.94Z"/><polygon class="cls-1" points="39.75 25.35 40.09 26.56 39.21 26.56 38.34 26.56 38.68 25.35 37.47 25.69 37.47 24.82 37.47 23.95 38.68 24.28 38.34 23.08 39.21 23.08 40.09 23.08 39.75 24.28 40.96 23.95 40.96 24.82 40.96 25.69 39.75 25.35"/><path class="cls-1" d="M40.16,26.5H38.27l.29-1-1.17.33v-2l1.17.33L38.23,23h2l-.33,1.17L41,23.84v2l-1.17-.33Zm-1.7,0H40l-.35-1.24,1.24.35V24.05l-1.24.35L40,23.16H38.45l.35,1.24-1.24-.35v1.53l1.24-.35Z"/><path class="cls-5" d="M43,6.38c0,3.48-1.77,6.3-4,6.3s-3.95-2.82-3.95-6.3S36.83.08,39,.08s4,2.82,4,6.3"/><path class="cls-1" d="M39,12.76c-2.22,0-4-2.86-4-6.38S36.79,0,39,0s4,2.86,4,6.38-1.81,6.38-4,6.38M39,.16C36.88.16,35.15,3,35.15,6.38S36.88,12.6,39,12.6s3.87-2.79,3.87-6.22S41.15.16,39,.16"/><path class="cls-7" d="M39,11.08c1.49-1.43,1-1.83.82-2.46A3.44,3.44,0,0,1,40.07,7c.69.11,1.2-.8,1.32-1.32s.23-.86.74-.91a1.64,1.64,0,0,0-2-.12c.17-2.75-.4-3.32-1.11-3.32s-1.28.57-1.11,3.32a1.65,1.65,0,0,0-2,.12c.51.06.63.4.75.91S37.28,7.07,38,7a3.44,3.44,0,0,1,.23,1.66c-.17.63-.67,1,.82,2.46"/><path class="cls-1" d="M39,11.19,39,11.13C37.65,9.88,37.83,9.38,38,8.85c0-.08.06-.17.08-.26A3.17,3.17,0,0,0,37.91,7c-.7.05-1.22-.81-1.34-1.39s-.21-.8-.67-.85l-.21,0,.17-.13a2.13,2.13,0,0,1,1.22-.42,1.34,1.34,0,0,1,.73.2c-.08-1.54.08-2.51.49-2.94a1,1,0,0,1,1.43,0c.41.43.57,1.4.49,2.94a1.34,1.34,0,0,1,.74-.2,2.13,2.13,0,0,1,1.22.42l.17.13-.21,0c-.46.05-.56.36-.67.85S40.82,7.1,40.12,7a3.17,3.17,0,0,0-.2,1.55c0,.09.06.18.09.26.19.53.38,1-.93,2.28ZM38,6.86l0,.06a3.45,3.45,0,0,1,.23,1.71c0,.1-.06.19-.09.28-.18.49-.33.91.83,2.05,1.17-1.14,1-1.57.84-2.05,0-.09-.07-.18-.09-.28A3.46,3.46,0,0,1,40,6.92l0-.06h.06c.64.1,1.12-.8,1.22-1.25s.21-.82.61-.94a1.92,1.92,0,0,0-1-.28,1.15,1.15,0,0,0-.78.27L40,4.8V4.6c.1-1.6,0-2.58-.43-3a.87.87,0,0,0-1.19,0C38,2,37.89,3,38,4.6v.2l-.15-.13a1.14,1.14,0,0,0-.77-.27,1.91,1.91,0,0,0-1,.28c.4.12.51.47.61.94S37.31,7,38,6.87Z"/><rect class="cls-1" x="38.93" y="2.6" width="0.16" height="4.29"/><path class="cls-7" d="M37.42,8.27c-.35.06-.75,1-1.26,1.2a2.15,2.15,0,0,0,1.89,0c.57-.23.52-1.09.52-1.09Z"/><path class="cls-1" d="M37.1,9.77h0a2.49,2.49,0,0,1-1-.23l-.2-.09.21-.07a1.88,1.88,0,0,0,.69-.67c.21-.27.39-.51.58-.54h0l1.23.12v.07s.05.92-.57,1.17a2.59,2.59,0,0,1-1,.22m-.74-.31a2.11,2.11,0,0,0,.74.14A2.41,2.41,0,0,0,38,9.4c.42-.17.46-.74.46-.94l-1.06-.11c-.13,0-.3.26-.47.47a2.68,2.68,0,0,1-.6.64"/><path class="cls-7" d="M40.61,8.27c.34.06.74,1,1.26,1.2a2.15,2.15,0,0,1-1.89,0c-.57-.23-.52-1.09-.52-1.09Z"/><path class="cls-1" d="M40.93,9.77a2.6,2.6,0,0,1-1-.22c-.62-.25-.57-1.13-.57-1.17V8.31l1.22-.12h0c.19,0,.37.27.58.54a1.88,1.88,0,0,0,.69.67l.21.07-.2.09a2.48,2.48,0,0,1-1,.22M39.55,8.46c0,.2,0,.77.47.94a2.4,2.4,0,0,0,.92.21,2.11,2.11,0,0,0,.74-.14,2.66,2.66,0,0,1-.6-.64c-.17-.22-.34-.44-.47-.47Z"/><path class="cls-7" d="M41.31,7.58c0,.38-1,.69-2.29.69S36.73,8,36.73,7.58s1-.69,2.29-.69,2.29.31,2.29.69"/><path class="cls-1" d="M39,8.35c-1.15,0-2.37-.27-2.37-.77s1.22-.77,2.37-.77,2.37.27,2.37.77-1.22.77-2.37.77M39,7c-1.3,0-2.21.32-2.21.61s.9.61,2.21.61,2.21-.32,2.21-.61S40.32,7,39,7"/><path class="cls-1" d="M26.28,8.66c-2.07.49-1,3.86-.5,5.84a28.73,28.73,0,0,1,4.21-1c-.35-1.82-1.65-5.35-3.71-4.86"/><path class="cls-1" d="M25.71,14.61l0-.1L25.56,14c-.4-1.53-.95-3.64-.28-4.74a1.51,1.51,0,0,1,1-.7,1.94,1.94,0,0,1,.41,0c1.8,0,3,3,3.42,5l0,.1H30a29.14,29.14,0,0,0-4.19,1Zm.95-5.91a1.46,1.46,0,0,0-.36,0,1.3,1.3,0,0,0-.87.61c-.62,1-.09,3.09.3,4.6l.11.42a29.7,29.7,0,0,1,4-.94c-.39-1.94-1.55-4.73-3.22-4.73"/><path class="cls-1" d="M51.9,8.65c-2.1-.54-2.78,2.85-3.31,4.79a30.53,30.53,0,0,1,4.26,1.11c.58-1.73,1.15-5.36-1-5.9"/><path class="cls-1" d="M52.91,14.67l-.09,0a30.19,30.19,0,0,0-4.25-1.1l-.1,0,0-.1.13-.51c.49-1.86,1.15-4.41,2.83-4.41a1.85,1.85,0,0,1,.45.06,1.79,1.79,0,0,1,1.16.92c.76,1.4.27,3.86-.14,5.1Zm-4.21-1.3a31.48,31.48,0,0,1,4.09,1.06c.37-1.16.84-3.54.12-4.86a1.61,1.61,0,0,0-1-.83,1.73,1.73,0,0,0-.41-.05c-1.54,0-2.18,2.47-2.65,4.27l-.11.41"/><path class="cls-1" d="M15.38,13.06l2.23,4.89c.73-.37,1.49-.92,2.12-1.16-.66-1.62-2.49-4.35-4.35-3.73"/><path class="cls-1" d="M17.57,18.07,15.25,13l.1,0a1.79,1.79,0,0,1,.59-.1c1.69,0,3.25,2.32,3.89,3.88l0,.09-.09,0a7.94,7.94,0,0,0-1.2.64c-.3.18-.61.37-.92.52Zm-2.06-5,2.15,4.7c.27-.14.55-.31.82-.47a9.06,9.06,0,0,1,1.14-.62c-.62-1.46-2.12-3.67-3.68-3.67a1.65,1.65,0,0,0-.43.06"/><path class="cls-1" d="M58.47,16.63c.68.25,1.47.56,2.23.89l1.94-5-.15-.08c-2-.86-3.2,2.38-4,4.21"/><path class="cls-1" d="M60.76,17.65l-.09,0c-.7-.31-1.42-.65-2.16-.91l-.12-.1.21-.48c.73-1.66,1.72-3.93,3.25-3.93a1.77,1.77,0,0,1,.68.15l.16.08.07,0ZM58.6,16.58c.68.25,1.4.54,2.06.82l1.87-4.85-.07,0a1.5,1.5,0,0,0-.61-.14c-1.4,0-2.37,2.21-3.07,3.82l-.17.39"/><path class="cls-1" d="M48.31,52.48C48,51.54,47.5,51,46.88,51a3.17,3.17,0,0,1-1.39-.29,2.15,2.15,0,0,0,1.17-.66c.46-.6.78-.71,1.31-.46a.19.19,0,0,0,.23-.28c-.57-.79-1.27-1.13-1.84-.89a3.14,3.14,0,0,1-1.41.2,2.13,2.13,0,0,0,.87-1c.23-.72.49-.93,1.08-.87a.18.18,0,0,0,.19-.12.19.19,0,0,0-.07-.22c-.8-.55-1.58-.63-2-.21a3.12,3.12,0,0,1-1.26.66,2.14,2.14,0,0,0,.47-1.25c0-.76.15-1,.72-1.19a.18.18,0,0,0,.14-.18.19.19,0,0,0-.14-.18c-.94-.25-1.7-.06-2,.49a3.11,3.11,0,0,1-1,1.06,2.15,2.15,0,0,0,0-1.34c-.29-.7-.22-1,.27-1.36a.19.19,0,0,0,.07-.22.18.18,0,0,0-.19-.12c-1,.09-1.62.52-1.7,1.14A3.13,3.13,0,0,1,39.89,45a2.14,2.14,0,0,0-.44-1.26c-.51-.56-.56-.89-.21-1.37a.18.18,0,0,0,0-.23.19.19,0,0,0-.22-.05c-.88.41-1.34,1-1.21,1.65a2.89,2.89,0,0,1-.16,1.65l-.09,0a2.32,2.32,0,0,0-1-1.19c-.68-.33-.85-.61-.71-1.19a.19.19,0,0,0-.09-.21.19.19,0,0,0-.22,0c-.66.71-.85,1.47-.49,2a3.1,3.1,0,0,1,.48,1.34,2.14,2.14,0,0,0-1.17-.64c-.75-.08-1-.29-1.08-.87a.19.19,0,0,0-.16-.16.19.19,0,0,0-.2.11c-.37.9-.29,1.68.21,2a3.17,3.17,0,0,1,.91,1.1,2.16,2.16,0,0,0-1.32-.2c-.73.18-1,.07-1.31-.46a.19.19,0,0,0-.21-.1.18.18,0,0,0-.15.17c0,1,.29,1.68.89,1.84a3.14,3.14,0,0,1,1.23.72,2.12,2.12,0,0,0-1.31.26c-.63.42-1,.42-1.39,0a.19.19,0,0,0-.23,0,.19.19,0,0,0-.08.22c.28.93.85,1.48,1.46,1.43a3.13,3.13,0,0,1,1.4.26,2.14,2.14,0,0,0-1.15.68c-.45.61-.76.73-1.3.49a.19.19,0,0,0-.23.28,2,2,0,0,0,1.46.93,1,1,0,0,0,.4-.09,3.18,3.18,0,0,1,1.4-.23,2.12,2.12,0,0,0-.85,1c-.21.72-.47.94-1.06.9a.19.19,0,0,0-.19.13.19.19,0,0,0,.07.21,2.39,2.39,0,0,0,1.28.45,1.05,1.05,0,0,0,.76-.28,3.12,3.12,0,0,1,1.24-.69A2.15,2.15,0,0,0,34.45,57c0,.75-.12,1-.69,1.2a.19.19,0,0,0-.14.18.18.18,0,0,0,.14.18,3,3,0,0,0,.71.09A1.3,1.3,0,0,0,35.74,58a3.11,3.11,0,0,1,.93-1.07,2.14,2.14,0,0,0,0,1.34c.3.69.24,1-.24,1.37a.19.19,0,0,0,.11.34h0c1-.11,1.6-.56,1.67-1.17a3.12,3.12,0,0,1,.51-1.33,2.15,2.15,0,0,0,.47,1.26c.52.55.57.88.24,1.36a.19.19,0,0,0,0,.23.19.19,0,0,0,.14.07l.08,0c.87-.43,1.32-1.07,1.17-1.67a3.11,3.11,0,0,1,0-1.42,2.14,2.14,0,0,0,.86,1c.67.34.84.64.69,1.2a.18.18,0,0,0,.09.21.16.16,0,0,0,.09,0,.18.18,0,0,0,.14-.06c.68-.7.88-1.46.53-2a3.17,3.17,0,0,1-.45-1.35A2.14,2.14,0,0,0,44,57c.75.09,1,.31,1.06.9a.19.19,0,0,0,.15.17h0a.19.19,0,0,0,.17-.11c.4-.89.33-1.67-.17-2a3.15,3.15,0,0,1-.88-1.12,2.14,2.14,0,0,0,1.32.24c.74-.17,1.05-.05,1.3.48a.19.19,0,0,0,.17.11h0a.19.19,0,0,0,.15-.17c.07-1-.26-1.68-.85-1.86a3.16,3.16,0,0,1-1.21-.75l.32,0a1.86,1.86,0,0,0,1-.24c.64-.41,1-.4,1.39,0a.19.19,0,0,0,.31-.18m-3.37-1.23a5.67,5.67,0,0,1-.1,1.07h-.21a1,1,0,0,0,.11.41,5.75,5.75,0,0,1-.6,1.41l-.2-.06a1,1,0,0,0,0,.42,5.76,5.76,0,0,1-1,1.13l-.17-.13a1,1,0,0,0-.17.38,5.79,5.79,0,0,1-1.36.71L41,56.41a1.08,1.08,0,0,0-.29.31,5.74,5.74,0,0,1-1.5.2h0l-.05-.21a1.07,1.07,0,0,0-.38.19,5.62,5.62,0,0,1-1.5-.32l0-.21a1.06,1.06,0,0,0-.42,0,5.71,5.71,0,0,1-1.3-.82l.09-.19a1.05,1.05,0,0,0-.41-.1,5.67,5.67,0,0,1-.95-1.21l.15-.15a1.08,1.08,0,0,0-.36-.23,5.68,5.68,0,0,1-.47-1.46l.2-.09a1.05,1.05,0,0,0-.26-.34,5.64,5.64,0,0,1,0-.58,5.84,5.84,0,0,1,.08-.94l.22,0a1,1,0,0,0-.13-.41,5.69,5.69,0,0,1,.57-1.42l.21.06a1.06,1.06,0,0,0,0-.42,5.73,5.73,0,0,1,1-1.15l.17.12a1,1,0,0,0,.16-.39,5.64,5.64,0,0,1,1.58-.82l.12.18a1.08,1.08,0,0,0,.3-.3,5.7,5.7,0,0,1,1.37-.17h.15l0,.21a1.08,1.08,0,0,0,.38-.18,5.6,5.6,0,0,1,1.49.36l0,.21a1.05,1.05,0,0,0,.42,0A5.76,5.76,0,0,1,43,47l-.1.19a1.06,1.06,0,0,0,.4.1,5.76,5.76,0,0,1,.92,1.23l-.15.14a1,1,0,0,0,.35.24,5.6,5.6,0,0,1,.44,1.47l-.19.08a1,1,0,0,0,.25.34c0,.15,0,.31,0,.46m1.56-2.46a1,1,0,0,1,1,.33h0a1.48,1.48,0,0,0-1.14.73,1.94,1.94,0,0,1-1.11.56A5.83,5.83,0,0,0,44.87,49a3.58,3.58,0,0,0,1.62-.22m-1.27-2.31a1,1,0,0,1,1.06,0,1.47,1.47,0,0,0-.84,1.08,1.93,1.93,0,0,1-.85.9,6,6,0,0,0-.82-1.18,3.6,3.6,0,0,0,1.45-.76m-2-1.75a1,1,0,0,1,1-.4,1.48,1.48,0,0,0-.42,1.3,2,2,0,0,1-.49,1.14,6.15,6.15,0,0,0-1.17-.84,3.58,3.58,0,0,0,1.1-1.2m-2.45-1c0-.32.33-.57.79-.71a1.47,1.47,0,0,0,0,1.36,1.92,1.92,0,0,1-.08,1.24,6,6,0,0,0-1.38-.39,3.61,3.61,0,0,0,.62-1.5m-2.63-.08a1,1,0,0,1,.5-.94,1.46,1.46,0,0,0,.5,1.26,1.94,1.94,0,0,1,.35,1.19h-.27a6,6,0,0,0-1.16.11,3.62,3.62,0,0,0,.08-1.63m-2.69-.07a1.47,1.47,0,0,0,.95,1,1.93,1.93,0,0,1,.77,1,6.12,6.12,0,0,0-1.28.65,3.57,3.57,0,0,0-.55-1.54,1,1,0,0,1,.11-1.06m-2.11,2.77a1,1,0,0,1-.26-1,1.47,1.47,0,0,0,1.22.6,1.93,1.93,0,0,1,1.06.64,6.11,6.11,0,0,0-1,1,3.62,3.62,0,0,0-1-1.26m-1.89,1.41a1.46,1.46,0,0,0,1.36.15,1.93,1.93,0,0,1,1.21.25,6,6,0,0,0-.58,1.31,3.6,3.6,0,0,0-1.4-.83c-.31-.08-.51-.41-.59-.88m.14,3.48c-.32,0-.62-.21-.86-.63a1.47,1.47,0,0,0,1.32-.32,1.94,1.94,0,0,1,1.22-.18,6.11,6.11,0,0,0-.1,1.11c0,.11,0,.22,0,.33a3.63,3.63,0,0,0-1.6-.3m.46,2.6a1,1,0,0,1-1-.3,1.46,1.46,0,0,0,1.14-.75,2,2,0,0,1,1.09-.58,6.08,6.08,0,0,0,.4,1.38,3.61,3.61,0,0,0-1.6.26m1.31,2.28a1,1,0,0,1-1.06.07,1.47,1.47,0,0,0,.82-1.1,1.94,1.94,0,0,1,.83-.92,6.09,6.09,0,0,0,.85,1.16,3.63,3.63,0,0,0-1.43.79m2,1.7a1,1,0,0,1-1,.42,1.48,1.48,0,0,0,.4-1.31,1.93,1.93,0,0,1,.47-1.15,6,6,0,0,0,1.19.81,3.61,3.61,0,0,0-1.07,1.23m2.47.92c0,.32-.32.58-.78.73A1.47,1.47,0,0,0,37,58.12a1.91,1.91,0,0,1,0-1.24,6,6,0,0,0,1.39.35,3.57,3.57,0,0,0-.59,1.52m2.15,1a1.46,1.46,0,0,0-.53-1.25,1.93,1.93,0,0,1-.37-1.18h.13a6.06,6.06,0,0,0,1.3-.14,3.61,3.61,0,0,0,0,1.63,1,1,0,0,1-.48.95M42.87,59a1.46,1.46,0,0,0-.93-1,1.93,1.93,0,0,1-.75-1,6,6,0,0,0,1.3-.62A3.57,3.57,0,0,0,43,57.91,1,1,0,0,1,42.87,59M45,56.24a1,1,0,0,1,.23,1,1.47,1.47,0,0,0-1.21-.62A1.92,1.92,0,0,1,43,56a6,6,0,0,0,1-1,3.58,3.58,0,0,0,1,1.29M46.39,54c.31.09.51.42.57.9a1.47,1.47,0,0,0-1.35-.18,1.93,1.93,0,0,1-1.21-.28,6.09,6.09,0,0,0,.61-1.3,3.57,3.57,0,0,0,1.38.86m0-1.65a1.94,1.94,0,0,1-1.23.15,6.1,6.1,0,0,0,.13-1.24c0-.07,0-.13,0-.19a3.58,3.58,0,0,0,1.6.34c.32,0,.62.22.84.65a1.46,1.46,0,0,0-1.33.29"/><path class="cls-7" d="M46.51,52.49c.63-.4,1.09-.49,1.62,0-.25-.88-.73-1.35-1.24-1.32a3,3,0,0,1-1.79-.51v-.08a2.33,2.33,0,0,0,1.41-.67c.45-.59.86-.84,1.54-.51-.53-.75-1.15-1-1.62-.82a3,3,0,0,1-1.86.13l0-.07a2.34,2.34,0,0,0,1.1-1.11c.23-.71.52-1.08,1.27-1-.75-.52-1.43-.57-1.8-.22a3,3,0,0,1-1.71.75L43.34,47A2.33,2.33,0,0,0,44,45.62c0-.74.13-1.19.86-1.38-.89-.23-1.54-.05-1.77.4a3,3,0,0,1-1.35,1.29l-.07,0a2.34,2.34,0,0,0,.14-1.56c-.28-.69-.29-1.16.33-1.58-.91.08-1.46.47-1.53,1a3,3,0,0,1-.83,1.67h-.08a2.33,2.33,0,0,0-.4-1.52c-.5-.55-.66-1-.22-1.6-.83.39-1.22.94-1.11,1.44a3,3,0,0,1-.21,1.85l-.33.1a2.32,2.32,0,0,0-.94-1.25c-.67-.32-1-.67-.81-1.4-.62.67-.77,1.33-.47,1.75a3,3,0,0,1,.51,1.79l-.06.05a2.32,2.32,0,0,0-1.31-.85c-.74-.07-1.16-.29-1.24-1-.36.85-.27,1.51.15,1.81A3,3,0,0,1,34.34,48l0,.07a2.31,2.31,0,0,0-1.52-.36c-.72.18-1.19.12-1.52-.56,0,.92.26,1.52.75,1.65a3.06,3.06,0,0,1,1.53,1.05l0,.08a2.32,2.32,0,0,0-1.55.18c-.61.41-1.08.52-1.62,0,.27.88.76,1.34,1.27,1.3a3,3,0,0,1,1.8.47V52a2.32,2.32,0,0,0-1.4.7c-.44.6-.84.85-1.53.55.55.73,1.17,1,1.64.79A3,3,0,0,1,34,53.86l0,.07A2.34,2.34,0,0,0,33,55.06c-.21.71-.5,1.09-1.25,1,.77.5,1.44.54,1.81.18a3,3,0,0,1,1.69-.79l.06.06A2.32,2.32,0,0,0,34.64,57c0,.74-.1,1.19-.82,1.39.89.21,1.54,0,1.76-.44a3,3,0,0,1,1.32-1.32l.07,0a2.33,2.33,0,0,0-.1,1.56c.3.68.31,1.16-.3,1.59.91-.1,1.45-.5,1.51-1a3,3,0,0,1,.79-1.69h.08a2.33,2.33,0,0,0,.43,1.5c.51.54.69,1,.26,1.6.82-.4,1.2-1,1.08-1.46a3,3,0,0,1,.17-1.86l.08,0a2.31,2.31,0,0,0,.91,1.27c.66.34,1,.69.78,1.42.64-.66.8-1.32.51-1.74A3,3,0,0,1,42.69,56l.06,0a2.34,2.34,0,0,0,1.29.88c.74.09,1.16.31,1.22,1.06.37-.83.3-1.51-.11-1.81a3,3,0,0,1-1.06-1.54l0-.07a2.31,2.31,0,0,0,1.51.39c.73-.16,1.19-.1,1.51.59.07-.92-.23-1.52-.72-1.67a3,3,0,0,1-1.51-1.09l0-.08a2.34,2.34,0,0,0,1.56-.15"/><path class="cls-1" d="M136.38,78.37c0,10.36-8.14,19.06-20.91,19.06A27.49,27.49,0,0,1,105,95.57c-2.78-.92-4.72-1.85-7.12-1.85s-2.78,1.76-3.05,3.7H93.09V74.76h1.76c1.57,16,13.78,18.78,19.61,18.78,6.75,0,13.23-3.52,13.23-10.82,0-8.88-12-13.14-22-19.15a24.53,24.53,0,0,1-5.73-4.81c-.09,0-.09-.09-.18-.09a2,2,0,0,0-.37-.46,3.34,3.34,0,0,1-.65-.93,18,18,0,0,1-3.24-6.2,15.78,15.78,0,0,1-.93-3.42v-.56a.7.7,0,0,1-.09-.37v-.09A13,13,0,0,1,94.38,44a18.06,18.06,0,0,1,.18-2.22A15.6,15.6,0,0,1,98.45,34c.74-.65,1.29-1.2,1.66-1.48a25.89,25.89,0,0,1,2.68-1.57,21.93,21.93,0,0,1,6.94-2.31l.09-.09a29.09,29.09,0,0,1,4.07-.28h1.39c.18,0,.37.09.55.09h.56c.09,0,.28.09.37.09h.09a25.24,25.24,0,0,1,6.57,1.66c2.59.92,4.62,1.94,6,1.94,2.5,0,3.14-1.85,3.61-3.79h1.85V42.76c0,2.22-.09,5.36-1.94,7.68A5.8,5.8,0,0,1,131.19,52a5.62,5.62,0,0,1-4.62.18c-1.76-.65-3-1.85-2.78-3.51V48.4a2.29,2.29,0,0,1,2.59-1.67,2,2,0,0,1,1.76,2.41,2.13,2.13,0,0,1-2.5,1.66.34.34,0,0,1-.28-.09,4.76,4.76,0,0,0,2.5,1c3.79-.09,4.53-5.55,3.05-9a18.31,18.31,0,0,0-13.51-10.27.83.83,0,0,0-.46-.09c-.09,0-.28-.09-.37-.09h-.28c-.09,0-.28-.09-.37-.09h-.28a1.86,1.86,0,0,1-.65-.09h-1.57A13.27,13.27,0,0,0,103.08,37c-1.2,1.76-2.59,5.27.28,9.53,2,2.59,5.55,5.36,10.27,8.42.18.09.28.18.46.27s.46.28.65.37a5.7,5.7,0,0,0,.92.65l10.92,6.94h.09a1.93,1.93,0,0,1,.56.37c5.27,3.7,9.16,8.32,9.16,14.8"/><path class="cls-1" d="M202.6,49.51a40,40,0,0,1,2.31,13.32c0,18.5-12.77,34.59-32.47,34.59s-32.37-16.1-32.37-34.59,12.67-34.59,32.38-34.59a30.58,30.58,0,0,1,23.4,10.17,17.38,17.38,0,0,1,2.87,4.44,20.12,20.12,0,0,1,1.67,6.85v1.57l-.09.09v1a.7.7,0,0,0-.09.37v.18a.71.71,0,0,1-.09.37v.46c0,.09-.09.09-.09.18a.55.55,0,0,1-.09.37v.09a4.77,4.77,0,0,1-.18,1c-.09.18-.09.28-.19.46V56c0,.09-.09.28-.09.37a.09.09,0,0,1-.09.09c0,.18,0,.28-.09.37V57c-.09.09-.09.18-.18.28v.18c-.09.09-.09.18-.18.28v.19c-.09.09-.09.18-.19.28s0,.09-.09.18-.09.18-.09.28l-.09.09a10.21,10.21,0,0,1-.74,1.39l-.09.09c0,.09-.09.18-.18.28a.09.09,0,0,1-.09.09c-.09.09-.09.18-.18.37a.09.09,0,0,0-.09.09c-.09.09-.18.19-.18.28a.09.09,0,0,0-.09.09l-.28.28c0,.09-.09.09-.09.18a.2.2,0,0,0-.19.18l-.18.19c-.09.09-.09.19-.19.19s-.09.09-.09.18a1.27,1.27,0,0,0-.37.28,6,6,0,0,1-.83.74h-.09l-.28.28c-.09.09-.09.09-.19.09l-.28.28h-.09a16.74,16.74,0,0,1-7,2.77c9.07-7.31,4.07-22.38,4-22.47-3.05-7.4-8.6-12.77-18.13-12.77-16.37,0-21.18,16.09-21.18,31A48.84,48.84,0,0,0,154.32,81a19,19,0,0,0,1.2,1.66c2.13,1.85,5.64,1.57,6.57-1.94a.33.33,0,0,0-.09.19,2.15,2.15,0,0,1-3,.09,2.06,2.06,0,0,1,2.77-3.05l.19.18c2.4,2.5-.74,6.57-4.44,8.6a17.8,17.8,0,0,0,14.89,7.12c15.72,0,20.81-14.71,21.18-29,4.07-2.22,8.51-6.57,8.88-15.17h.09Z"/><path class="cls-1" d="M216.48,97.43h-7.86V95.57c3.79-.28,7.86-.74,7.86-4.53V34.53c0-3.79-4.07-4.16-7.86-4.44V28.24h34.32c12.12,0,22.2,5.18,22.29,17.67v.19c-.09,5.92-2.4,10.17-6,13h-.09a18.64,18.64,0,0,1-4.62,2.59h-.09c-.46.18-.93.37-1.3.56,9,1.67,15.63,7,15.63,17.3,0,12.58-10,17.85-22.2,17.85H216.48Zm9.34-37.19V91c0,3.7,3.89,4.07,7.58,4.35,14.43,0,26.08-7.12,26.08-15.82,0-7.31-8-13.41-19.15-15.26v-.09h-.09a24.08,24.08,0,0,1-3.89-.37c-.19-.09-.37-.09-.55-.18-.93-.18-1.76-.37-2.4-.56a4.33,4.33,0,0,1-.83-.28,16.6,16.6,0,0,1-2.77-1c-.09-.09-.18-.09-.28-.18a1,1,0,0,1-.37-.18.34.34,0,0,1,.28.09h.46a1.36,1.36,0,0,1,.65.09h2.68l.09-.09h.83a1.17,1.17,0,0,1,.55-.09h.18c.19,0,.37-.09.55-.09h.19l1.39-.28h.09c.28,0,.46-.09.65-.09h.18c.19-.09.37-.09.56-.19h.09a1.34,1.34,0,0,0,.65-.19h.09a7.67,7.67,0,0,0,1.39-.37,1.34,1.34,0,0,0,.65-.18h.09c.18-.09.37-.09.55-.18h.09a16.57,16.57,0,0,0,1.94-.74,1.74,1.74,0,0,1,.65-.18v-.09a22.1,22.1,0,0,0,7.68-5A11.91,11.91,0,0,0,256,46c-.09-6.85-7.21-12.58-17.11-14.8a34.72,34.72,0,0,0-10.27-.64c-1.57.46-2.77,1.39-2.77,4V60.24Z"/><path class="cls-1" d="M335.62,97.42H311.47l-.37-1.85c4.35-.18,6.75-1,6.11-4.62-.28-1.66-8.7-15.91-11.93-21.46L304.35,68c-.55-1-1-1.76-2.22-1.76H301a8.14,8.14,0,0,1-2.68-.46.35.35,0,0,1-.28-.09,15.16,15.16,0,0,1-2.59-1.48l-.46-.46a.09.09,0,0,1-.09-.09,12,12,0,0,0,3.42.37C310,63,319,55.89,319,47.29c0-9.34-10.55-16.93-23.5-16.93h-4V91.13c0,3.7,4.07,4.16,7.86,4.44v1.85H274.29V95.57c3.79-.28,7.86-.74,7.86-4.44V34.53c0-3.79-4.07-4.16-7.86-4.44V28.24h33c10.91,0,20,5.55,20,19.05,0,10.92-6,16.65-14.15,18.41L327,89c2.59,3.7,3.14,6.38,8.33,6.57Z"/><path class="cls-1" d="M382.6,78.65,360.13,68.38h-.18c-4.62,11-9.07,21.83-9.07,22.75,0,3.7,4.07,4.16,7.86,4.44v1.85H337.47V95.57c5.27-.46,7.49-3.15,10.54-10.27l8-18.78a8.72,8.72,0,0,0-6.48-.18,8.87,8.87,0,0,0-4.81,4.53c-1.29,2.59,0,6.1,1.85,7.68a2,2,0,0,1-.37-1.29,2,2,0,1,1,4.07,0,2,2,0,0,1-1.57,2,4.26,4.26,0,0,1-3.88-.46,6.37,6.37,0,0,1-.92-.74c-2.13-1.76-3.61-6.2,0-11.1V66.9a11.48,11.48,0,0,1,13.23-3l11-25.9-.09-.28a5.48,5.48,0,0,0-3.7-3.24V32.68h.19s6.1-.37,7.86-4.44h1.85L376,32.68,393.43,74.3a9.41,9.41,0,0,0,1.76-2.5c1.85-3.61-1.39-9.25-4.26-8.42a4.27,4.27,0,0,1,4.16.46,3.34,3.34,0,0,1,.92.65c2.13,1.76,3.7,6.29.09,11.19H396a9.72,9.72,0,0,1-1.39,1.39l5,11.93c1.94,3.7,4.44,6.38,9.62,6.57v1.85H382.51V95.57c4.44-.19,7-1,7-4.62,0-.65-1.85-5.27-4.26-11.47a13.13,13.13,0,0,1-2.68-.83m-21.55-13,19,8.6c2.59,1,3,.09,2.31-2.13C377,59,370.49,43.78,370.49,43.78s-4.62,10.73-9.43,21.92"/><path class="cls-1" d="M466.87,97.42H412.94V95.57c3.79-.28,7.86-.74,7.86-4.53V34.53c0-3.79-4.07-4.16-7.86-4.44V28.24H438v1.94c-3.79.28-7.86.55-7.86,4.35V91c0,3.79,4.07,4.16,7.86,4.44h16.65a4,4,0,0,0,3.24-2.22l3.42-9.53h2.4V92.8A3,3,0,0,0,466.87,96Z"/><path class="cls-1" d="M106.25,5.85A5.24,5.24,0,0,1,104.61,10a5.19,5.19,0,0,1-1,.66,7.67,7.67,0,0,1-4.84.74,2.35,2.35,0,0,1-.4-.11,1.5,1.5,0,0,1-.37-.13.1.1,0,0,1-.08,0s0,0-.05,0a1.4,1.4,0,0,1-.4-.21,1.45,1.45,0,0,1-.29-.19L97,10.55a0,0,0,0,1,0,0,3.47,3.47,0,0,0,1,.11c3.33-.29,5.89-2.33,5.89-4.78,0-2.67-3-4.84-6.71-4.84H96V18.38c0,1.06,1.16,1.19,2.25,1.27v.53H91.1v-.53c1.08-.08,2.25-.21,2.25-1.27V2.2C93.35,1.12,92.19,1,91.1.94V.41h9.43c3.12,0,5.71,1.59,5.71,5.44"/><path class="cls-1" d="M139.62,20.17h-6.9l-.11-.53c1.24-.05,1.93-.29,1.74-1.32-.08-.47-2.48-4.54-3.41-6.13l-.26-.42c-.16-.29-.29-.5-.63-.5h-.32a2.33,2.33,0,0,1-.76-.13.1.1,0,0,1-.08,0,4.12,4.12,0,0,1-.74-.42l-.13-.13a0,0,0,0,1,0,0,3.43,3.43,0,0,0,1,.11c3.33-.29,5.89-2.33,5.89-4.78,0-2.67-3-4.84-6.71-4.84H127V18.38c0,1.06,1.16,1.19,2.25,1.27v.53H122.1v-.53c1.08-.08,2.24-.21,2.24-1.27V2.2c0-1.08-1.16-1.19-2.24-1.27V.41h9.43c3.12,0,5.71,1.58,5.71,5.44a4.89,4.89,0,0,1-4,5.26l4,6.66c.74,1.06.9,1.82,2.38,1.88Z"/><path class="cls-1" d="M154.94.94V.41h15.4V.8a.87.87,0,0,0-.9.93V4.29h-.69l-1-2.7a1.09,1.09,0,0,0-.93-.63h-4.76c-1.08.08-2.25.16-2.25,1.24V8.76c0,1.06,1.16,1.16,2.25,1.24h2.62a1.22,1.22,0,0,0,.92-.63l.66-1.85h.53V13h-.53l-.66-1.85a1.22,1.22,0,0,0-.92-.63h-2.62c-1.08.08-2.25.18-2.25,1.27v6.53c0,1.08,1.16,1.19,2.25,1.27h4.76a1.15,1.15,0,0,0,.93-.64l1-2.72h.69v2.59a.87.87,0,0,0,.9.92v.4h-15.4v-.53c1.08-.08,2.25-.21,2.25-1.29V2.2c0-1.08-1.16-1.19-2.25-1.27"/><path class="cls-1" d="M188.45,20.17H186.2v-.53c1.08-.08,2.25-.21,2.25-1.29V2.2c0-1.08-1.16-1.19-2.25-1.27V.41h15.4V.8a.87.87,0,0,0-.9.93V4.29H200l-1-2.7a1.09,1.09,0,0,0-.93-.63h-4.76c-1.08.08-2.25.16-2.25,1.24V8.76c0,1.06,1.16,1.16,2.25,1.24H196a1.22,1.22,0,0,0,.93-.63l.66-1.85h.53V13h-.53l-.66-1.85a1.21,1.21,0,0,0-.93-.63h-2.61c-1.08.08-2.25.18-2.25,1.27v6.53c0,1.08,1.16,1.19,2.25,1.27v.55h-4.92Z"/><path class="cls-1" d="M217.46.94V.41h15.4V.8a.87.87,0,0,0-.9.93V4.29h-.69l-1-2.7a1.09,1.09,0,0,0-.93-.63h-4.76c-1.08.08-2.25.16-2.25,1.24V8.76c0,1.06,1.16,1.16,2.25,1.24h2.62a1.22,1.22,0,0,0,.93-.63l.66-1.85h.53V13h-.53l-.66-1.85a1.22,1.22,0,0,0-.93-.63h-2.62c-1.08.08-2.25.18-2.25,1.27v6.53c0,1.08,1.16,1.19,2.25,1.27h4.76a1.16,1.16,0,0,0,.93-.64l1-2.72H232v2.59a.86.86,0,0,0,.9.92v.4h-15.4v-.53c1.08-.08,2.25-.21,2.25-1.29V2.2c0-1.08-1.16-1.19-2.25-1.27"/><path class="cls-1" d="M251,20.17h-2.25v-.55c1.08-.08,2.25-.19,2.25-1.27V2.2C251,1.12,249.8,1,248.72,1V.41h7.16V.94c-1.08.08-2.25.18-2.25,1.27V18.35c0,1.08,1.16,1.21,2.25,1.29v.53H251Z"/><path class="cls-1" d="M287.14.41V.8a.87.87,0,0,0-.9.92V4.29h-.69l-1-2.7a1.09,1.09,0,0,0-.93-.63h-1c-1,.08-1.88.29-1.88,1.24V18.38c0,1.06,1.16,1.19,2.25,1.27v.53h-7.16v-.53c1.06-.08,2.25-.21,2.25-1.27V2.2c0-1.08-1.16-1.16-2.25-1.24h-.66a1.15,1.15,0,0,0-.92.63l-1,2.7h-.69V1.73a.85.85,0,0,0-.87-.92V.41h15.41Z"/><path class="cls-1" d="M305.24,14.76V2.2c0-1.08-1.16-1.19-2.25-1.27V.41h7.16V.94c-1.08.08-2.25.18-2.25,1.27V14.76a3.61,3.61,0,0,0,0,.53,2.3,2.3,0,0,0,.26.82,1.11,1.11,0,0,0,2-.08.09.09,0,0,1-.05,0,.6.6,0,0,1-.82-.16.62.62,0,0,1,.19-.82.59.59,0,0,1,.82.16.09.09,0,0,0,0,.05c.48.85-.58,1.72-1.74,2.06a3.59,3.59,0,0,0,3.22,1.8c2.88,0,3.89-2.54,3.89-4.39V2.2c0-1.08-1.16-1.19-2.25-1.27V.41h7.16V.94c-1.08.08-2.25.18-2.25,1.27V14.94c-.1,3.78-3.38,5.23-6.55,5.23s-6.45-1.45-6.55-5.23Z"/><path class="cls-1" d="M354,20.17h-6.9l-.11-.53c1.24-.05,1.93-.29,1.74-1.32-.08-.47-2.48-4.54-3.41-6.13l-.27-.42c-.16-.29-.29-.5-.63-.5h-.32a2.33,2.33,0,0,1-.76-.13.1.1,0,0,1-.08,0,4.13,4.13,0,0,1-.74-.42l-.13-.13a0,0,0,0,1,0,0,3.43,3.43,0,0,0,1,.11c3.33-.29,5.89-2.33,5.89-4.78,0-2.67-3-4.84-6.71-4.84h-1.14V18.38c0,1.06,1.16,1.19,2.25,1.27v.53h-7.16v-.53c1.08-.08,2.25-.21,2.25-1.27V2.2c0-1.08-1.16-1.19-2.25-1.27V.41h9.43c3.12,0,5.71,1.58,5.71,5.44,0,3.12-1.72,4.76-4,5.26l4,6.66c.74,1.06.9,1.82,2.38,1.88Z"/><path class="cls-1" d="M381.66,14.81l-6.42-2.93h-.05c-1.32,3.14-2.59,6.24-2.59,6.5,0,1.06,1.16,1.19,2.25,1.27v.53h-6.08v-.53c1.51-.13,2.14-.9,3-2.93L374,11.35a2.49,2.49,0,0,0-1.85-.05,2.53,2.53,0,0,0-1.37,1.29,2,2,0,0,0,.53,2.19.55.55,0,0,1-.11-.37.58.58,0,0,1,1.16,0A.57.57,0,0,1,372,15a1.22,1.22,0,0,1-1.11-.13,1.9,1.9,0,0,1-.26-.21,2.28,2.28,0,0,1,0-3.17v0a3.28,3.28,0,0,1,3.78-.85l3.15-7.4,0-.08a1.56,1.56,0,0,0-1.06-.93V1.68h.05s1.74-.11,2.25-1.27h.53l.53,1.27,5,11.89a2.66,2.66,0,0,0,.5-.71c.53-1-.4-2.64-1.21-2.4a1.22,1.22,0,0,1,1.19.13.93.93,0,0,1,.26.18,2.31,2.31,0,0,1,0,3.2h0a2.66,2.66,0,0,1-.4.4l1.43,3.41a3,3,0,0,0,2.75,1.88v.53h-7.64v-.53c1.27-.05,2-.29,2-1.32,0-.19-.53-1.51-1.21-3.28a3.69,3.69,0,0,1-.77-.24m-6.16-3.7,5.42,2.46c.74.29.85,0,.66-.61C380,9.21,378.2,4.85,378.2,4.85l-2.69,6.26"/><path class="cls-1" d="M413.84.94V.41h9.25a8.81,8.81,0,0,1,6.85,3.07l-.16-.16a5,5,0,0,1,.82,1.27,5.73,5.73,0,0,1,.48,2V7l0,0v.29a.2.2,0,0,0,0,.11v.05a.19.19,0,0,1,0,.11V7.7s0,0,0,.05a.17.17,0,0,1,0,.11v0a1.43,1.43,0,0,1-.05.29c0,.05,0,.08-.05.13v0s0,.08,0,.11a0,0,0,0,1,0,0c0,.05,0,.08,0,.11v.05s0,.05-.05.08v.05s0,.05-.05.08v.05s0,.05-.05.08,0,0,0,.05,0,.05,0,.08l0,0a3,3,0,0,1-.21.4h0a.14.14,0,0,1-.05.11,0,0,0,0,1,0,0s0,.05-.05.11,0,0,0,0-.05.05-.05.08a0,0,0,0,0,0,0L430,10a0,0,0,0,1,0,0l-.08.08s0,0,0,.05-.05.05-.05.08,0,0,0,0-.05,0-.08.05l0,0a1.85,1.85,0,0,1-.24.21h0a.38.38,0,0,1-.11.08s0,0,0,0l-.08.08h0v.16a5.28,5.28,0,0,0,.85-.58h0a5.12,5.12,0,0,0,1.69-3.75V6.49a11.25,11.25,0,0,1,.66,3.8c0,5.29-3.65,9.88-9.28,9.88h-9.25v-.53c1.08-.08,2.25-.21,2.25-1.29V2.2c0-1.08-1.16-1.19-2.25-1.27m4.91,17.41c0,.77.58,1,1.32,1.16a9.14,9.14,0,0,0,6.48-1.87c.42-.4,2.48-2.46,2.59-6.92a4.81,4.81,0,0,1-2,.79c1.72-1.4,1.67-3.75,1.43-5.2a8.11,8.11,0,0,0-2-3.36c-2.46-2.11-5.44-1.87-7-1.87a1,1,0,0,0-.79,1.14Z"/><path class="cls-1" d="M448.75.94V.41h15.41V.8a.87.87,0,0,0-.9.93V4.29h-.69l-1-2.7a1.09,1.09,0,0,0-.92-.63h-4.76c-1.08.08-2.25.16-2.25,1.24V8.76c0,1.06,1.16,1.16,2.25,1.24h2.62a1.22,1.22,0,0,0,.92-.63l.66-1.85h.53V13h-.53l-.66-1.85a1.22,1.22,0,0,0-.92-.63h-2.62c-1.08.08-2.25.18-2.25,1.27v6.53c0,1.08,1.16,1.19,2.25,1.27h4.76a1.16,1.16,0,0,0,.92-.64l1-2.72h.69v2.59a.87.87,0,0,0,.9.92v.4H448.75v-.53c1.08-.08,2.25-.21,2.25-1.29V2.2c0-1.08-1.16-1.19-2.25-1.27"/><path class="cls-1" d="M94.11,120A5.93,5.93,0,0,0,98,121.62c1.6,0,2.69-.87,2.69-2.19,0-3.38-7.39-2.62-7.39-7.39,0-2.58,2.17-4.25,5-4.25a6.3,6.3,0,0,1,4.27,1.56l-1,1.76a5.29,5.29,0,0,0-3.38-1.34c-1.56,0-2.75.85-2.75,2.17,0,3.27,7.37,2.41,7.37,7.33,0,2.41-1.76,4.36-4.88,4.36a7.25,7.25,0,0,1-5-2Z"/><path class="cls-1" d="M110.89,112.13c3.1,0,4.75,2.32,4.75,5.14a6.54,6.54,0,0,1-.09.89h-8a3.62,3.62,0,0,0,3.77,3.64,5,5,0,0,0,3.23-1.28l.89,1.54a6.57,6.57,0,0,1-4.25,1.56,5.6,5.6,0,0,1-5.83-5.75A5.39,5.39,0,0,1,110.89,112.13Zm2.62,4.51a2.67,2.67,0,0,0-2.67-2.88,3.19,3.19,0,0,0-3.21,2.88Z"/><path class="cls-1" d="M124,112.13a5.74,5.74,0,0,1,4.12,1.6l-1,1.47a4.45,4.45,0,0,0-3-1.26,3.75,3.75,0,0,0-3.82,3.9,3.8,3.8,0,0,0,3.88,3.95,4.9,4.9,0,0,0,3.38-1.47l.85,1.54a6.15,6.15,0,0,1-4.38,1.76,5.75,5.75,0,1,1,0-11.49Z"/><path class="cls-1" d="M131.25,112.39h2v2a4.8,4.8,0,0,1-.07.8h0a3.87,3.87,0,0,1,3.49-2.91,4.52,4.52,0,0,1,.56,0v2.08a3.93,3.93,0,0,0-.61,0c-2.36,0-3.36,2.34-3.36,4.47v4.55h-2.1Z"/><path class="cls-1" d="M144.76,112.13c3.1,0,4.75,2.32,4.75,5.14a6.54,6.54,0,0,1-.09.89h-8a3.62,3.62,0,0,0,3.77,3.64,5,5,0,0,0,3.23-1.28l.89,1.54a6.57,6.57,0,0,1-4.25,1.56,5.6,5.6,0,0,1-5.83-5.75A5.39,5.39,0,0,1,144.76,112.13Zm2.62,4.51a2.67,2.67,0,0,0-2.67-2.88,3.19,3.19,0,0,0-3.21,2.88Z"/><path class="cls-1" d="M153.13,114.21H151.7v-1.71h1.47v-3.12h2.06v3.12h2.65v1.71h-2.65v4.9a2.18,2.18,0,0,0,2.34,2.47,2.23,2.23,0,0,0,.5,0v1.86a5,5,0,0,1-.74.07c-1.41,0-4.21-.46-4.21-4.12Z"/><path class="cls-1" d="M166.53,116.53h.56v-.22a2.14,2.14,0,0,0-2.41-2.41,5.5,5.5,0,0,0-3.08,1.06l-.85-1.54a7,7,0,0,1,4.1-1.3c2.75,0,4.34,1.52,4.34,4.29v6.94h-2v-1.11a5.53,5.53,0,0,1,.06-.87h0a4,4,0,0,1-3.6,2.23,3.38,3.38,0,0,1-3.66-3.25C160,116.92,164.26,116.53,166.53,116.53Zm-2.39,5.42c1.84,0,2.95-1.87,2.95-3.49V118h-.54c-1.56,0-4.47.13-4.47,2.15A1.85,1.85,0,0,0,164.15,121.95Z"/><path class="cls-1" d="M173,112.39h2v2a4.8,4.8,0,0,1-.07.8h0a3.87,3.87,0,0,1,3.49-2.91,4.52,4.52,0,0,1,.56,0v2.08a3.93,3.93,0,0,0-.61,0c-2.36,0-3.36,2.34-3.36,4.47v4.55H173Z"/><path class="cls-1" d="M181.71,108h2.17v2.13h-2.17Zm0,4.34h2.1v11h-2.1Z"/><path class="cls-1" d="M193.36,116.53h.56v-.22a2.14,2.14,0,0,0-2.41-2.41,5.5,5.5,0,0,0-3.08,1.06l-.85-1.54a7,7,0,0,1,4.1-1.3c2.75,0,4.34,1.52,4.34,4.29v6.94h-2v-1.11a5.53,5.53,0,0,1,.06-.87h0a4,4,0,0,1-3.6,2.23,3.38,3.38,0,0,1-3.66-3.25C186.81,116.92,191.08,116.53,193.36,116.53ZM191,121.95c1.84,0,2.95-1.87,2.95-3.49V118h-.54c-1.56,0-4.47.13-4.47,2.15A1.85,1.85,0,0,0,191,121.95Z"/><path class="cls-1" d="M210.14,112.13a3.89,3.89,0,0,1,3.4,1.8h0a6.21,6.21,0,0,1,0-.74V108h2.08v15.31h-2v-1.11a3.86,3.86,0,0,1,.07-.74h0a4,4,0,0,1-3.64,2.1c-2.95,0-4.83-2.34-4.83-5.75S207.23,112.13,210.14,112.13Zm.28,9.67c1.63,0,3.17-1.17,3.17-3.95,0-2-1-3.88-3.12-3.88-1.71,0-3.14,1.41-3.14,3.9S208.6,121.8,210.42,121.8Z"/><path class="cls-1" d="M225.17,116.53h.56v-.22a2.14,2.14,0,0,0-2.41-2.41,5.5,5.5,0,0,0-3.08,1.06l-.85-1.54a7,7,0,0,1,4.1-1.3c2.75,0,4.34,1.52,4.34,4.29v6.94h-2v-1.11a5.53,5.53,0,0,1,.06-.87h0a4,4,0,0,1-3.6,2.23,3.38,3.38,0,0,1-3.66-3.25C218.62,116.92,222.89,116.53,225.17,116.53Zm-2.39,5.42c1.84,0,2.95-1.87,2.95-3.49V118h-.54c-1.56,0-4.47.13-4.47,2.15A1.85,1.85,0,0,0,222.78,121.95Z"/><path class="cls-1" d="M238,108H247v1.86H240.2v4.79h5.49v1.86H240.2v4.92h7.13v1.86H238Z"/><path class="cls-1" d="M254.81,112.13a3.89,3.89,0,0,1,3.4,1.8h0a6.21,6.21,0,0,1,0-.74V108h2.08v15.31h-2v-1.11a3.86,3.86,0,0,1,.07-.74h0a4,4,0,0,1-3.64,2.1c-2.95,0-4.83-2.34-4.83-5.75S251.91,112.13,254.81,112.13Zm.28,9.67c1.63,0,3.17-1.17,3.17-3.95,0-2-1-3.88-3.12-3.88-1.71,0-3.14,1.41-3.14,3.9S253.27,121.8,255.09,121.8Z"/><path class="cls-1" d="M264,112.39h2.1v6.55c0,1.52.33,2.73,2.06,2.73,2.25,0,3.58-2,3.58-4.14v-5.14h2.08v11h-2v-1.52a3.94,3.94,0,0,1,.09-.8h0a4.57,4.57,0,0,1-4.08,2.58c-2.47,0-3.75-1.3-3.75-4.21Z"/><path class="cls-1" d="M282.94,112.13a5.74,5.74,0,0,1,4.12,1.6l-1,1.47a4.45,4.45,0,0,0-3-1.26,3.75,3.75,0,0,0-3.82,3.9,3.8,3.8,0,0,0,3.88,3.95,4.9,4.9,0,0,0,3.38-1.47l.85,1.54a6.15,6.15,0,0,1-4.38,1.76,5.75,5.75,0,1,1,0-11.49Z"/><path class="cls-1" d="M295.86,116.53h.56v-.22A2.14,2.14,0,0,0,294,113.9a5.5,5.5,0,0,0-3.08,1.06l-.85-1.54a7,7,0,0,1,4.1-1.3c2.75,0,4.34,1.52,4.34,4.29v6.94h-2v-1.11a5.53,5.53,0,0,1,.06-.87h0a4,4,0,0,1-3.6,2.23,3.38,3.38,0,0,1-3.66-3.25C289.31,116.92,293.58,116.53,295.86,116.53Zm-2.39,5.42c1.84,0,2.95-1.87,2.95-3.49V118h-.54c-1.56,0-4.47.13-4.47,2.15A1.85,1.85,0,0,0,293.48,121.95Z"/><path class="cls-1" d="M306.53,123.55a5.53,5.53,0,0,1-5-5.68,5.64,5.64,0,0,1,5.88-5.75,5.74,5.74,0,0,1,4.12,1.6l-1,1.47a4.45,4.45,0,0,0-3-1.26,3.75,3.75,0,0,0-3.82,3.9,3.8,3.8,0,0,0,3.88,3.95,4.9,4.9,0,0,0,3.38-1.47l.85,1.54a6.06,6.06,0,0,1-4.12,1.76l-.17.82a1.59,1.59,0,0,1,1.56,1.58c0,1.34-1.11,1.82-2.21,1.82a5.43,5.43,0,0,1-1.19-.13v-1.28a3,3,0,0,0,.91.15c.54,0,1-.15,1-.67s-.48-.67-1.15-.67c-.19,0-.39,0-.39,0Z"/><path class="cls-1" d="M320.41,116.53H321v-.22a2.14,2.14,0,0,0-2.41-2.41,5.5,5.5,0,0,0-3.08,1.06l-.85-1.54a7,7,0,0,1,4.1-1.3c2.75,0,4.34,1.52,4.34,4.29v6.94h-2v-1.11a5.53,5.53,0,0,1,.06-.87h0a4,4,0,0,1-3.6,2.23,3.38,3.38,0,0,1-3.66-3.25C313.86,116.92,318.13,116.53,320.41,116.53ZM317.35,108c1.45,0,1.8,1.47,2.73,1.47.65,0,.85-.78.85-1.41h1.52c0,1.8-.72,2.75-2.21,2.75s-1.8-1.47-2.73-1.47c-.65,0-.85.76-.85,1.41h-1.52C315.14,108.94,315.88,108,317.35,108Zm.67,13.94c1.84,0,2.95-1.87,2.95-3.49V118h-.54c-1.56,0-4.47.13-4.47,2.15A1.85,1.85,0,0,0,318,121.95Z"/><path class="cls-1" d="M332,112.13a5.75,5.75,0,1,1-5.9,5.72A5.72,5.72,0,0,1,332,112.13Zm0,9.67a3.93,3.93,0,1,0-3.77-3.95A3.8,3.8,0,0,0,332,121.8Z"/></g></g></svg>