<svg xmlns="http://www.w3.org/2000/svg" viewBox="0 0 639.05 219.14"><defs><style>.cls-1{fill:#ff563e;}.cls-2{fill:#71d36b;}.cls-3{fill:#fad247;}.cls-4{fill:#fa9245;}.cls-5{fill:#49bbf8;}.cls-6{fill:#3f3f3f;}</style></defs><title>Ativo 1</title><g id="Camada_2" data-name="Camada 2"><g id="Camada_1-2" data-name="Camada 1"><polygon class="cls-1" points="112.04 0 140.04 0 140.04 139 109.04 139 109.04 66.27 82.12 116 58.76 116 32.04 67.45 31.84 139 0.04 139 0.04 0 28.63 0 70.43 79.06 112.04 0"/><polygon class="cls-2" points="166.04 139 166.04 0 265.04 0 265.04 28 201.04 28 201.04 54 261.04 54 261.04 82 201.04 82 201.04 111 265.04 111 265.04 139 166.04 139"/><path class="cls-3" d="M404.88,32.24a58.51,58.51,0,0,0-25.53-24Q362.69,0,339.62,0H283V139h56.59q23.26,0,39.93-8.28a57.93,57.93,0,0,0,25.43-24q8.77-15.67,8.77-37.36Q413.76,47.91,404.88,32.24ZM368.56,99.9q-10.1,10.1-30.7,10.1H320V29h17.82q20.6,0,30.7,10t10.1,30.4Q378.66,89.8,368.56,99.9Z"/><rect class="cls-4" x="436.04" width="36" height="139"/><path class="cls-5" d="M574,0H545.2L480.33,139h36.15L529,110h62l12.51,29H639ZM540.86,83,560,38.45,579.11,83Z"/><path class="cls-6" d="M.23,205.18c-.35-.32-.19-1-.19-1V158.05s-.16-.78.19-1.08a8.24,8.24,0,0,0,1.22-1H28.28a5.86,5.86,0,0,0,.91.9,1.45,1.45,0,0,1,.35,1,1.35,1.35,0,0,1-.35.94.64.64,0,0,1-.91.14H3v20H26.89c.37.38.67.5.91.73a1.32,1.32,0,0,1,.35,1,1.45,1.45,0,0,1-.35,1,.85.85,0,0,1-.91.28H3v21H28.28a1,1,0,0,1,.91.29,1.32,1.32,0,0,1,.35,1,1.45,1.45,0,0,1-.35,1c-.23.26-.54.38-.91.72H1.45A12.78,12.78,0,0,1,.23,205.18Z"/><path class="cls-6" d="M66.64,156A1.73,1.73,0,0,1,67,157.2v47.71a1.73,1.73,0,0,1-.39,1.21,1.43,1.43,0,0,1-1.11.43q-1.5,0-1.5-1.64v-5.64a11.89,11.89,0,0,1-4.68,5.57,13.88,13.88,0,0,1-7.46,1.93,14.59,14.59,0,0,1-8.07-2.25,14.84,14.84,0,0,1-5.43-6.36,22.21,22.21,0,0,1-1.93-9.53,21.32,21.32,0,0,1,1.93-9.36,14.41,14.41,0,0,1,13.5-8.43,13.88,13.88,0,0,1,7.46,1.93,12,12,0,0,1,4.68,5.5V157.2q0-1.64,1.5-1.64A1.43,1.43,0,0,1,66.64,156Zm-6.05,43.47q3.1-3.83,3.1-10.87t-3.07-10.81q-3.07-3.83-8.71-3.83a10.86,10.86,0,0,0-8.82,3.8q-3.17,3.8-3.17,10.7t3.17,10.91a10.61,10.61,0,0,0,8.75,3.94A10.61,10.61,0,0,0,60.59,199.46Z"/><path class="cls-6" d="M104.23,171.65c.25.28.81,1.12.81,1.12v31.61q0,1.68-1.54,1.68a1.32,1.32,0,0,1-1.06-.48,1.8,1.8,0,0,1-.4-1.21v-5a11.44,11.44,0,0,1-4.55,5A13.08,13.08,0,0,1,90.74,206Q85,206,82,202.82t-3-9.45V172.76s-.58-.84-.32-1.12a1.6,1.6,0,0,1,2.16,0c.25.28.16,1.12.16,1.12v20.3q0,5.19,2.12,7.65t6.55,2.46a10.87,10.87,0,0,0,8.23-3.24,12,12,0,0,0,3.11-8.63V172.76l1-1.12a1.6,1.6,0,0,1,2.16,0Z"/><path class="cls-6" d="M121.48,204a14.34,14.34,0,0,1-5.4-6.13,20.75,20.75,0,0,1-1.92-9.13,21.16,21.16,0,0,1,1.92-9.24,14.47,14.47,0,0,1,5.44-6.2,14.9,14.9,0,0,1,8.05-2.2,19.08,19.08,0,0,1,5,.66,12.83,12.83,0,0,1,4.32,2.06,11.82,11.82,0,0,1,1.85,1.71,2.26,2.26,0,0,1,.52,1.43,1.26,1.26,0,0,1-.35.87,1.09,1.09,0,0,1-.84.38,1.63,1.63,0,0,1-.84-.31q-.49-.31-1-.73a20.46,20.46,0,0,0-3.8-2.37,12.54,12.54,0,0,0-13.84,3.07q-3.28,4-3.28,10.94t3.24,10.66a11.18,11.18,0,0,0,9,3.83,12.31,12.31,0,0,0,5-.91,18.66,18.66,0,0,0,3.94-2.37,4.25,4.25,0,0,1,1.81-1,1.19,1.19,0,0,1,1.19,1.19,1.86,1.86,0,0,1-.49,1.25,16.38,16.38,0,0,1-1.88,1.67,15.33,15.33,0,0,1-4.46,2.16,17.29,17.29,0,0,1-5.23.84A14.77,14.77,0,0,1,121.48,204Z"/><path class="cls-6" d="M174,183.21V204a1.69,1.69,0,0,1-.38,1.19,1.39,1.39,0,0,1-1.08.42,1.45,1.45,0,0,1-1.12-.45A1.63,1.63,0,0,1,171,204V199.1a11.33,11.33,0,0,1-4.43,4.95A12.54,12.54,0,0,1,160,205.8a13.16,13.16,0,0,1-5.9-1.32,10.7,10.7,0,0,1-4.26-3.66,9,9,0,0,1-1.57-5.12,8,8,0,0,1,2-5.82q2-2.06,6.56-3a69.7,69.7,0,0,1,12.8-.91H171v-2.93q0-4.95-2-7.21t-6.25-2.27a18.88,18.88,0,0,0-6,.87,15.42,15.42,0,0,0-4.15,2c-.19.14-.57.41-1.15.8a2.78,2.78,0,0,1-1.43.59,1.2,1.2,0,0,1-.87-.38,1.27,1.27,0,0,1-.38-.94q0-1.32,2.44-2.79a20.56,20.56,0,0,1,5.34-2.23,22.44,22.44,0,0,1,5.76-.77Q174,170.73,174,183.21Zm-8.37,18.44a10.58,10.58,0,0,0,3.94-4.15,12.43,12.43,0,0,0,1.43-6V189h-1.32a78.64,78.64,0,0,0-11.15.59q-3.83.59-5.37,2a5.48,5.48,0,0,0-1.53,4.22,6.65,6.65,0,0,0,2.37,5.26,8.82,8.82,0,0,0,6,2.06A10.79,10.79,0,0,0,165.67,201.65Z"/><path class="cls-6" d="M200.87,204.69q0,1.53-2,1.32l-1.81-.14q-5.23-.35-7.67-3.17c-1.63-1.88-2.44-4.8-2.34-8.75V175h-5.89a3.24,3.24,0,0,0-.84-.91,1.14,1.14,0,0,1-.35-.84,1.34,1.34,0,0,1,.35-.94.84.84,0,0,1,.84-.31H187v-9.34a1.24,1.24,0,0,1,.31-1.19,1.52,1.52,0,0,1,2.09,0,3,3,0,0,1,.6,1.19V172h9.09a.84.84,0,0,1,.84.31,1.35,1.35,0,0,1,.35.94,1.21,1.21,0,0,1-.31.84,4.6,4.6,0,0,0-.87.91H190v19c-.18,3.16.44,5.41,1.67,6.76s3.15,2.14,5.75,2.37l1.88.14Q200.87,203.43,200.87,204.69Z"/><path class="cls-6" d="M207.08,162.17a2.33,2.33,0,0,1-.77-1.81,2.48,2.48,0,0,1,.73-1.88,2.8,2.8,0,0,1,3.69,0,2.48,2.48,0,0,1,.73,1.88,2.34,2.34,0,0,1-.77,1.81,2.71,2.71,0,0,1-3.63,0Zm.35,43.84a1.73,1.73,0,0,1-.39-1.21V172.37a1.62,1.62,0,0,1,.39-1.14,1.64,1.64,0,0,1,2.21,0,1.63,1.63,0,0,1,.39,1.14V204.8a1.74,1.74,0,0,1-.39,1.21,1.64,1.64,0,0,1-2.21,0Z"/><path class="cls-6" d="M227.08,204a14.28,14.28,0,0,1-5.3-6.13,23.6,23.6,0,0,1,0-18.47,14.49,14.49,0,0,1,26.35,0,23.6,23.6,0,0,1,0,18.47A14.86,14.86,0,0,1,227.08,204Zm16.69-4.5q3.1-3.8,3.1-10.91,0-6.9-3.17-10.77a11.82,11.82,0,0,0-17.5,0Q223,181.68,223,188.59q0,7.11,3.1,10.91a10.65,10.65,0,0,0,8.75,3.8Q240.67,203.29,243.78,199.49Z"/><path class="cls-6" d="M286,183.92v20.47q0,1.64-1.5,1.64a1.42,1.42,0,0,1-1.11-.43,1.73,1.73,0,0,1-.39-1.21V184.2q0-5.37-2.16-7.85t-7-2.48a11.51,11.51,0,0,0-8.62,3.31A12.07,12.07,0,0,0,262,186v18.38a1.74,1.74,0,0,1-.39,1.21,1.64,1.64,0,0,1-2.21,0,1.73,1.73,0,0,1-.39-1.21V172.87q0-1.68,1.54-1.68a1.35,1.35,0,0,1,1.1.44,1.9,1.9,0,0,1,.37,1.24V178a11.06,11.06,0,0,1,4.64-5.13,14,14,0,0,1,7.08-1.78Q286,171.08,286,183.92Z"/><path class="cls-6" d="M316.55,205.18a2.46,2.46,0,0,1-.51-1V158.05a2.42,2.42,0,0,1,.51-1.08,8.24,8.24,0,0,0,1.22-1H344.6a5.86,5.86,0,0,0,.91.9,1.45,1.45,0,0,1,.35,1,1.35,1.35,0,0,1-.35.94.64.64,0,0,1-.91.14H319v20h24.17c.37.38.67.5.91.73a1.32,1.32,0,0,1,.35,1,1.45,1.45,0,0,1-.35,1,.85.85,0,0,1-.91.28H319v21H344.6a1,1,0,0,1,.91.29,1.32,1.32,0,0,1,.35,1,1.45,1.45,0,0,1-.35,1c-.23.26-.54.38-.91.72H317.77A12.78,12.78,0,0,1,316.55,205.18Z"/><path class="cls-6" d="M382.24,204.41a1.42,1.42,0,0,1-.42,1,1.34,1.34,0,0,1-1,.42,1.59,1.59,0,0,1-1.19-.63l-12.55-14.71-12.48,14.71a1.81,1.81,0,0,1-1.25.63,1.34,1.34,0,0,1-1-.42,1.42,1.42,0,0,1-.42-1,1.77,1.77,0,0,1,.49-1.19l12.76-14.85-12.34-14.5a1.77,1.77,0,0,1-.49-1.19,1.42,1.42,0,0,1,.42-1,1.34,1.34,0,0,1,1-.42,1.6,1.6,0,0,1,1.19.63l12.13,14.36,12.13-14.36a1.59,1.59,0,0,1,1.19-.63,1.46,1.46,0,0,1,1,.42,1.37,1.37,0,0,1,.45,1,1.78,1.78,0,0,1-.49,1.19L369,188.38l12.76,14.85A1.78,1.78,0,0,1,382.24,204.41Z"/><path class="cls-6" d="M414.25,172.76a14.89,14.89,0,0,1,5.43,6.32,22,22,0,0,1,1.93,9.5,21.55,21.55,0,0,1-1.93,9.39,14.36,14.36,0,0,1-13.5,8.46,13.87,13.87,0,0,1-7.46-1.93,11.89,11.89,0,0,1-4.68-5.57V217.5a1.74,1.74,0,0,1-.39,1.21,1.43,1.43,0,0,1-1.11.43q-1.5,0-1.5-1.64V172.22a1.62,1.62,0,0,1,.39-1.14,1.64,1.64,0,0,1,2.21,0,1.63,1.63,0,0,1,.39,1.14v5.64a11.74,11.74,0,0,1,4.68-5.46,14.08,14.08,0,0,1,7.46-1.89A14.6,14.6,0,0,1,414.25,172.76Zm-.08,26.74q3.14-3.8,3.14-10.77t-3.14-10.87a10.56,10.56,0,0,0-8.71-3.9q-5.72,0-8.78,3.8t-3.07,10.84q0,7,3.07,10.87t8.71,3.83A10.76,10.76,0,0,0,414.17,199.49Z"/><path class="cls-6" d="M456.48,199.35a1.26,1.26,0,0,1,.35.87,2.17,2.17,0,0,1-.52,1.36,7.52,7.52,0,0,1-1.85,1.5,20,20,0,0,1-10.39,3q-7.6,0-12-4.67t-4.36-12.83a20.62,20.62,0,0,1,2-9.2,14.66,14.66,0,0,1,5.51-6.17,15.21,15.21,0,0,1,8.16-2.2q6.41,0,10.11,4.18t3.69,11.43a2.73,2.73,0,0,1-.49,1.81,2.24,2.24,0,0,1-1.74.56H431q.07,6.83,3.45,10.53t9.51,3.69a14.6,14.6,0,0,0,5.54-.91,22.31,22.31,0,0,0,4.29-2.37,5.27,5.27,0,0,1,1.88-1A1.1,1.1,0,0,1,456.48,199.35Zm-21.64-22.59q-3.24,3.31-3.8,9.24h23.35q-.14-6.06-3-9.31a10.13,10.13,0,0,0-8-3.24A11.41,11.41,0,0,0,434.84,176.76Z"/><path class="cls-6" d="M482.68,171a1.69,1.69,0,0,1,1.18.31,1.26,1.26,0,0,1,.32.94q0,1.19-1.5,1.39l-2.14.21q-5.21.49-7.86,3.76a11.65,11.65,0,0,0-2.64,7.53v19a1.67,1.67,0,0,1-.39,1.19,1.67,1.67,0,0,1-2.21,0,1.66,1.66,0,0,1-.39-1.19V172.6q0-1.6,1.5-1.6a1.47,1.47,0,0,1,1.07.42,1.58,1.58,0,0,1,.43,1.19v5q3.07-6,11.14-6.55l1-.07Z"/><path class="cls-6" d="M489,162.17a2.33,2.33,0,0,1-.77-1.81,2.48,2.48,0,0,1,.73-1.88,2.8,2.8,0,0,1,3.69,0,2.48,2.48,0,0,1,.73,1.88,2.34,2.34,0,0,1-.77,1.81,2.71,2.71,0,0,1-3.63,0Zm.47,43.84a1.73,1.73,0,0,1-.39-1.21V172.37a1.62,1.62,0,0,1,.39-1.14,1.64,1.64,0,0,1,2.21,0,1.63,1.63,0,0,1,.39,1.14V204.8a1.74,1.74,0,0,1-.39,1.21,1.64,1.64,0,0,1-2.21,0Z"/><path class="cls-6" d="M530.51,199.35a1.26,1.26,0,0,1,.35.87,2.17,2.17,0,0,1-.52,1.36,7.52,7.52,0,0,1-1.85,1.5,20,20,0,0,1-10.39,3q-7.6,0-12-4.67t-4.36-12.83a20.62,20.62,0,0,1,2-9.2,14.66,14.66,0,0,1,5.51-6.17,15.21,15.21,0,0,1,8.16-2.2q6.41,0,10.11,4.18t3.69,11.43a2.73,2.73,0,0,1-.49,1.81A2.24,2.24,0,0,1,529,189H505q.07,6.83,3.45,10.53t9.51,3.69a14.6,14.6,0,0,0,5.54-.91,22.31,22.31,0,0,0,4.29-2.37,5.27,5.27,0,0,1,1.88-1A1.1,1.1,0,0,1,530.51,199.35Zm-21.64-22.59q-3.24,3.31-3.8,9.24h23.35q-.14-6.06-3-9.31a10.13,10.13,0,0,0-8-3.24A11.41,11.41,0,0,0,508.86,176.76Z"/><path class="cls-6" d="M567,183.65v20.74q0,1.64-1.5,1.64a1.42,1.42,0,0,1-1.11-.43,1.73,1.73,0,0,1-.39-1.21V184.2q0-5.37-2.16-7.85t-7-2.48a11.51,11.51,0,0,0-8.62,3.31A12.07,12.07,0,0,0,543,186v18.4s.37.91.12,1.19a1.6,1.6,0,0,1-2.16,0c-.26-.28,0-1.19,0-1.19V172.87q0-1.68,1.54-1.68a1.35,1.35,0,0,1,1.1.44,1.9,1.9,0,0,1,.37,1.24V178a10.6,10.6,0,0,1,4.45-4.91,13.41,13.41,0,0,1,6.79-1.7Q567,171.35,567,183.65Z"/><path class="cls-6" d="M584.18,204a14.34,14.34,0,0,1-5.4-6.13,20.75,20.75,0,0,1-1.92-9.13,21.16,21.16,0,0,1,1.92-9.24,14.47,14.47,0,0,1,5.44-6.2,14.9,14.9,0,0,1,8.05-2.2,19.08,19.08,0,0,1,5,.66,12.83,12.83,0,0,1,4.32,2.06,11.82,11.82,0,0,1,1.85,1.71,2.26,2.26,0,0,1,.52,1.43,1.26,1.26,0,0,1-.35.87,1.09,1.09,0,0,1-.84.38,1.63,1.63,0,0,1-.84-.31q-.49-.31-1-.73a20.46,20.46,0,0,0-3.8-2.37,12.54,12.54,0,0,0-13.84,3.07q-3.28,4-3.28,10.94t3.24,10.66a11.18,11.18,0,0,0,9,3.83,12.31,12.31,0,0,0,5-.91,18.66,18.66,0,0,0,3.94-2.37,4.25,4.25,0,0,1,1.81-1,1.19,1.19,0,0,1,1.19,1.19,1.86,1.86,0,0,1-.49,1.25,16.38,16.38,0,0,1-1.88,1.67,15.33,15.33,0,0,1-4.46,2.16,17.29,17.29,0,0,1-5.23.84A14.77,14.77,0,0,1,584.18,204Z"/><path class="cls-6" d="M638.34,199.35a1.26,1.26,0,0,1,.35.87,2.17,2.17,0,0,1-.52,1.36,7.52,7.52,0,0,1-1.85,1.5,20,20,0,0,1-10.39,3q-7.6,0-12-4.67t-4.36-12.83a20.62,20.62,0,0,1,2-9.2,14.66,14.66,0,0,1,5.51-6.17,15.21,15.21,0,0,1,8.16-2.2q6.41,0,10.11,4.18T639,186.63a2.73,2.73,0,0,1-.49,1.81,2.24,2.24,0,0,1-1.74.56h-24q.07,6.83,3.45,10.53t9.51,3.69a14.6,14.6,0,0,0,5.54-.91,22.31,22.31,0,0,0,4.29-2.37,5.27,5.27,0,0,1,1.88-1A1.1,1.1,0,0,1,638.34,199.35ZM616.7,176.76q-3.24,3.31-3.8,9.24h23.35q-.14-6.06-3-9.31a10.13,10.13,0,0,0-8-3.24A11.41,11.41,0,0,0,616.7,176.76Z"/></g></g></svg>